<svg width="218" height="232" viewBox="14 0 218 232" fill="none" xmlns="http://www.w3.org/2000/svg">
<g filter="url(#filter0_f_1_60)">
<ellipse cx="112.015" cy="196.361" rx="92.6651" ry="24.6389" fill="#3C3C3C" fill-opacity="0.2"/>
</g>
<path d="M231.328 77.8882C231.518 78.283 231.708 78.6777 231.832 79.1109C232.244 80.9799 231.576 83.4043 230.066 86.0733C228.382 89.0148 225.663 92.3162 222.085 95.4499C221.022 96.4176 219.917 97.3259 218.704 98.2133C216.409 99.9112 214.093 101.452 211.845 102.699C207.933 104.848 204.135 106.252 200.949 106.703C198.107 107.119 195.809 106.874 194.337 105.718L190.871 101.77L191.088 101.557C192.67 102.48 195.12 102.549 197.985 102.036C201.281 101.351 205.23 99.7717 209.295 97.4485C211.111 96.3725 213.015 95.1602 214.856 93.7313C215.809 92.9977 216.762 92.2641 217.673 91.471C221.099 88.512 223.751 85.5041 225.585 82.6429C227.004 80.3652 227.885 78.2376 228.074 76.435C228.124 75.7294 228.109 75.0621 227.965 74.4717L228.331 74.339C228.331 74.339 230.819 77.1756 230.904 77.2943C230.989 77.4131 231.159 77.6507 231.328 77.8882Z" fill="url(#paint0_radial_1_60)"/>
<path d="M231.328 77.8863C231.518 78.2811 231.708 78.6758 231.832 79.109L228.898 75.7764L228.032 76.3738C228.082 75.6681 228.067 75.0008 227.922 74.4105L228.289 74.2777C228.289 74.2777 230.777 77.1143 230.862 77.2331C230.989 77.4112 231.159 77.6488 231.328 77.8863Z" fill="url(#paint1_linear_1_60)"/>
<path d="M227.112 82.5827L230.024 86.0132C228.34 88.9547 225.62 92.256 222.042 95.3897L218.958 91.9768L217.588 91.3515C221.014 88.3924 223.207 86.1636 225.041 83.3024L227.112 82.5827Z" fill="url(#paint2_linear_1_60)"/>
<path d="M208.676 99.1673L211.76 102.58C207.848 104.729 204.051 106.133 200.864 106.584L197.91 103.094L199.731 101.508C203.027 100.823 204.108 100.268 208.13 97.8852L208.676 99.1673Z" fill="url(#paint3_linear_1_60)"/>
<path d="M227.865 73.6853C228.354 74.2407 228.649 74.9114 228.856 75.7184C229.16 77.5664 228.492 79.9909 226.982 82.6599C225.298 85.6014 222.536 88.8434 219.023 91.9386C218.025 92.8679 216.878 93.7169 215.772 94.6252C213.477 96.323 211.097 97.9021 208.849 99.1494C204.936 101.298 201.204 102.664 198.06 103.174C195.39 103.572 193.307 103.37 191.79 102.409C191.448 102.189 191.213 101.99 190.936 101.731C189.958 100.621 189.694 99.087 189.99 97.3054C190.287 95.5237 191.318 93.4765 192.715 91.2966C194.504 88.6311 197.046 85.8572 200.19 83.1497C201.1 82.3567 202.118 81.5846 203.136 80.8125C204.955 79.4815 206.752 78.2483 208.568 77.1722C212.071 75.097 215.482 73.6681 218.478 72.8226C221.043 72.1483 223.281 71.9212 225.105 72.2775C226.178 72.4871 227.184 72.9901 227.865 73.6853Z" fill="url(#paint4_radial_1_60)"/>
<path d="M221.198 78.3113C223.624 80.9313 220.166 87.2056 213.516 92.2433C206.867 97.281 199.474 99.2095 197.049 96.5895C194.623 93.9695 198.081 87.6953 204.73 82.6575C211.487 77.6408 218.838 75.6528 221.198 78.3113Z" fill="url(#paint5_radial_1_60)"/>
<path d="M195.749 97.6122C195.919 97.8498 196.153 98.0489 196.453 98.2096L191.724 102.447C191.383 102.227 191.148 102.028 190.871 101.77C189.893 100.659 189.628 99.125 189.925 97.3434L194.853 94.6778C194.756 95.8341 195.025 96.8577 195.749 97.6122Z" fill="white"/>
<path d="M208.576 96.1844L208.741 99.1293C204.829 101.278 201.096 102.644 197.952 103.154L200.724 98.892C202.985 98.5671 205.767 97.6797 208.576 96.1844Z" fill="white"/>
<path d="M226.982 82.6598C225.298 85.6013 222.536 88.8433 219.023 91.9386L216.433 90.7683C219.1 88.4277 221.146 85.8634 222.329 83.6416L226.982 82.6598Z" fill="white"/>
<path d="M227.865 73.685C228.354 74.2405 228.649 74.9112 228.856 75.7182L223.344 78.7297C223.242 78.1987 222.967 77.6851 222.605 77.3079C222.116 76.7524 221.41 76.4101 220.574 76.1446L225.063 72.2179C226.178 72.4868 227.184 72.9899 227.865 73.685Z" fill="white"/>
<path d="M218.371 72.8017L215.994 76.3231C213.753 76.8053 211.163 77.8324 208.526 79.3102L208.461 77.1513C211.964 75.0761 215.375 73.6472 218.371 72.8017Z" fill="white"/>
<path d="M202.009 84.016C199.818 85.9899 198.014 87.9882 196.792 89.8956L192.715 91.2966C194.504 88.631 197.046 85.8572 200.19 83.1497L202.009 84.016Z" fill="white"/>
<path d="M219.808 79.8817C217.779 77.6522 211.47 79.3725 205.716 83.7241C199.961 88.0758 196.94 93.411 198.968 95.6406C200.996 97.8702 207.305 96.1499 213.06 91.7982C218.815 87.4465 221.836 82.1113 219.808 79.8817Z" stroke="white" stroke-width="0.8109" stroke-miterlimit="10" stroke-dasharray="2.27 2.27"/>
<path d="M221.198 78.3107C221.283 78.4295 221.368 78.5483 221.452 78.667C218.807 76.5152 211.779 78.566 205.412 83.3522C198.979 88.1768 195.546 94.0982 197.326 96.8475C197.176 96.7671 197.091 96.6484 197.006 96.5296C194.581 93.9096 198.039 87.6353 204.688 82.5976C211.487 77.6402 218.837 75.6523 221.198 78.3107Z" fill="url(#paint6_radial_1_60)"/>
<path d="M212.666 91.3094C207.641 95.1314 202.037 96.5918 200.25 94.6076C199.973 94.3491 199.826 94.0137 199.743 93.6399C199.207 91.3378 201.739 87.3866 206.093 84.0468C210.489 80.7663 215.212 79.2361 217.59 80.1094C217.955 80.2316 218.296 80.4517 218.509 80.7486C220.338 82.7922 217.691 87.4875 212.666 91.3094Z" fill="url(#paint7_radial_1_60)"/>
<path d="M211.9 90.497C207.004 94.2421 201.53 95.6256 199.786 93.7008L199.744 93.6414C199.207 91.3392 201.739 87.3881 206.093 84.0483C210.489 80.7678 215.213 79.2376 217.59 80.1109L217.633 80.1703C219.42 82.1545 216.837 86.8113 211.9 90.497Z" fill="url(#paint8_radial_1_60)"/>
<path d="M228.856 75.7197C229.203 77.6271 228.539 79.5415 227.748 81.2778C226.893 83.0525 225.845 84.6874 224.605 86.1827C223.407 87.7373 222.06 89.2115 220.563 90.6054C219.173 92.0203 217.549 93.2361 215.967 94.5112C212.761 97.0021 209.258 99.0773 205.5 100.796C203.622 101.656 201.615 102.337 199.654 102.823C197.651 103.249 195.455 103.535 193.481 103.099C195.562 103.556 197.651 103.249 199.677 102.725C201.703 102.201 203.602 101.498 205.48 100.639C209.238 98.9201 212.699 96.7855 215.84 94.3331C217.422 93.0579 218.981 91.8806 220.436 90.4273C221.868 89.0718 223.215 87.5975 224.455 86.1023C225.653 84.5477 226.808 82.9337 227.599 81.1975C228.432 79.5206 229.138 77.6656 228.856 75.7197Z" fill="white"/>
<path d="M212.658 89.8786C212.441 90.0917 212.117 90.2839 211.9 90.497C207.004 94.2421 201.53 95.6256 199.786 93.7008L199.744 93.6414C199.454 92.4606 199.921 90.9165 201.098 89.2047C202.146 87.5698 203.775 85.844 205.876 84.2614C206.325 86.6998 207.995 89.6831 212.658 89.8786Z" fill="url(#paint9_linear_1_60)"/>
<path d="M212.658 89.8786C212.441 90.0917 212.117 90.2839 211.9 90.497C207.004 94.2421 201.53 95.6256 199.786 93.7008L199.744 93.6414C199.454 92.4606 199.921 90.9165 201.098 89.2047C202.146 87.5698 203.775 85.844 205.876 84.2614C206.325 86.6998 207.995 89.6831 212.658 89.8786Z" fill="url(#paint10_linear_1_60)"/>
<g clip-path="url(#clip0_1_60)">
<path d="M72.4009 117.131C72.4009 117.131 71.0973 116.598 71.0973 117.945C71.0973 128.829 71.0973 177.749 71.0973 177.861C71.0973 179.684 78.8878 180.919 80.1914 181.311C84.8471 182.742 114.488 190.456 124.483 193.233C126.717 193.85 128.89 194.131 131.125 194.72L131.218 129.614L74.139 116.514L72.4009 117.131Z" fill="url(#paint11_linear_1_60)"/>
<path d="M187.024 118.618L186.279 180.105L131.125 194.72V129.305L187.024 118.618Z" fill="url(#paint12_linear_1_60)"/>
<path opacity="0.6" d="M134.942 131.914L157.01 138.506L183.796 120.75L158.283 142.125L134.942 131.914Z" fill="#AA1F1F"/>
<path opacity="0.3" d="M159.028 167.118L133.111 193.99L159.028 175L184.168 180.75L159.028 167.118Z" fill="#5B0909"/>
<path opacity="0.6" d="M174.298 177.132L169.239 178.506L167.222 183.752L164.615 178.927L159.307 178.534L162.97 174.383L161.883 169.053L166.663 171.241L171.288 168.324L170.512 173.738L174.298 177.132Z" fill="url(#paint13_linear_1_60)"/>
<path d="M182.524 116.514C177.433 115.336 172.281 114.214 167.191 112.98C158.562 110.904 149.841 109.053 141.181 107.033C134.508 105.49 128.704 104.424 121.907 105.995C117.499 107.005 112.968 107.734 108.498 108.632C98.4729 110.652 88.4166 112.559 78.3603 114.523C76.0325 114.972 73.7357 115.42 71.4078 115.869L130.97 130.035L173.802 120.582L185.658 118.253L182.524 116.514Z" fill="#DD3636"/>
<path d="M186.9 119.095L150.803 146.725V170.063L186.186 180.498L186.9 119.095Z" fill="#D33737"/>
<path d="M155.707 154.747C161.697 151.858 182.368 142.489 186.651 140.582L186.745 131.578C182.803 133.036 159.742 142.489 157.29 143.078L150.803 146.725V156.935C152.479 156.234 154.093 155.505 155.707 154.747Z" fill="url(#paint14_linear_1_60)"/>
<path opacity="0.6" d="M172.529 170.203L167.036 167.735L160.704 170.736L162.721 164.79L158.593 160.638L165.328 159.74L169.115 154.467L171.226 159.74L177.713 160.582L172.281 164.593L172.529 170.203Z" fill="url(#paint15_linear_1_60)"/>
<path opacity="0.4" d="M159.555 139.656C159.555 139.656 164.49 140.975 165.391 145.407C166.291 149.839 172.126 167.931 161.014 173.345L156.079 171.213L154.62 143.92L159.555 139.656Z" fill="#AA1F1F"/>
<path d="M130.597 129.866L168.68 142.293L169.053 162.826L132.894 193.682L130.566 193.57L130.597 129.866Z" fill="url(#paint16_linear_1_60)"/>
<path opacity="0.6" d="M150.058 154.158L144.161 152.644L138.543 156.627L139.35 150.456L134.415 147.062L140.871 145.07L143.509 139.235L146.675 144.088L153.224 143.836L148.692 148.688L150.058 154.158Z" fill="url(#paint17_linear_1_60)"/>
<path opacity="0.3" d="M77.398 139.712L83.2952 138.085L88.913 142.377L88.1371 135.729L93.0721 132.082L86.6162 129.923L83.978 123.667L80.8121 128.885L74.2631 128.604L78.7636 133.822L77.398 139.712Z" fill="url(#paint18_linear_1_60)"/>
<path opacity="0.6" d="M161.604 163.022L157.91 163.864L156.234 167.595L154.527 164.004L150.679 163.527L153.503 160.666L152.944 156.767L156.327 158.506L159.773 156.543L158.997 160.442L161.604 163.022Z" fill="url(#paint19_linear_1_60)"/>
<path opacity="0.3" d="M77.0566 172.784L81.464 173.766L83.4504 178.17L85.4679 173.962L89.9994 173.401L86.6783 169.979L87.3301 165.379L83.3262 167.426L79.2292 165.126L80.1604 169.726L77.0566 172.784Z" fill="url(#paint20_linear_1_60)"/>
<path opacity="0.6" d="M111.695 154.719L114.737 156.935L114.488 161.003L117.778 158.394L121.596 159.432L120.386 155.701L122.775 152.363L118.803 152.644L116.537 149.502L115.388 153.373L111.695 154.719Z" fill="url(#paint21_linear_1_60)"/>
<path opacity="0.6" d="M111.353 176.066L115.761 177.048L117.716 181.48L119.734 177.244L124.265 176.683L120.944 173.261L121.627 168.661L117.623 170.736L113.526 168.408L114.457 173.008L111.353 176.066Z" fill="url(#paint22_linear_1_60)"/>
<path opacity="0.6" d="M100.707 141.844L107.225 143.303L110.174 149.867L113.154 143.583L119.889 142.742L114.954 137.693L115.947 130.876L109.988 133.934L103.935 130.484L105.301 137.3L100.707 141.844Z" fill="url(#paint23_linear_1_60)"/>
<path opacity="0.4" d="M89.9373 162.545L96.1139 162.153L100.77 167.146L101.421 160.862L107.07 158.422L101.111 155.252L99.8384 148.997L95.5862 153.205L89.1614 151.746L92.5135 157.384L89.9373 162.545Z" fill="url(#paint24_linear_1_60)"/>
<path opacity="0.6" d="M172.746 147.566L169.022 148.38L167.346 152.111L165.67 148.548L161.821 148.071L164.646 145.182L164.087 141.283L167.47 143.05L170.915 141.087L170.139 144.958L172.746 147.566Z" fill="url(#paint25_linear_1_60)"/>
<path opacity="0.6" d="M161.325 130.904L157.6 131.718L155.924 135.449L154.248 131.886L150.399 131.409L153.224 128.52L152.634 124.649L156.048 126.388L159.493 124.425L158.717 128.296L161.325 130.904Z" fill="url(#paint26_linear_1_60)"/>
<path d="M124.203 130.764C124.203 130.764 128.58 133.233 127.835 142.097C127.09 150.989 129.945 194.046 123.738 193.065L128.766 194.383L130.411 138.141C130.38 138.169 131.466 131.746 124.203 130.764Z" fill="#FF4A4A"/>
<path d="M156.452 142.377C155.893 142.349 155.458 142.209 155.117 141.956C146.799 145.126 138.356 148.071 129.852 150.848C129.821 156.094 129.635 161.956 129.418 167.595C139.101 163.05 148.754 158.534 158.624 154.355C160.487 153.569 162.349 152.812 164.211 152.026C163.777 147.482 162.163 142.573 156.452 142.377Z" fill="url(#paint27_linear_1_60)"/>
<path d="M136.835 129.838C150.585 124.509 187.117 119.908 187.117 119.908C187.676 116.627 180.195 116.122 180.195 116.122C180.195 116.122 135.532 127.791 130.783 128.604C126.034 129.418 74.4492 115.448 74.4492 115.448C69.1727 115.617 71.1592 117.749 71.1592 117.749C76.6218 116.262 124.389 130.231 128.238 132.559C132.056 134.859 128.052 194.046 128.052 194.046C130.411 195.365 133.235 194.131 133.111 193.962C133.111 193.962 133.111 193.962 133.142 193.99L162.628 170.428C164.707 168.913 167.315 166.837 168.711 164.93C171.319 161.423 169.922 144.481 168.463 142.349C167.004 140.217 140.436 134.719 134.973 131.942C134.942 131.914 134.725 131.101 136.835 129.838ZM136.773 135.224C142.236 138.198 166.601 141.199 166.973 144.649C167.377 148.576 167.78 154.832 167.935 158.787C168.122 163.135 161.883 168.604 158.469 171.802C154.341 175.673 149.871 177.973 145.495 181.648C142.64 184.06 139.908 186.501 136.711 188.605C131.683 191.887 131.466 186.978 131.373 183.359C131.249 178.534 131.155 173.738 131.124 168.913C131.062 161.536 131.124 154.158 131.249 146.781C131.28 145.07 131.311 143.387 131.373 141.676C131.404 140.722 131.962 138.45 131.497 137.608C131.59 137.777 131.652 137.861 131.652 137.861C131.652 137.861 131.311 132.251 136.773 135.224Z" fill="#FF4A4A"/>
<path opacity="0.6" d="M137.208 159.965L132.863 162.433L129.666 160.778C129.573 163.583 129.48 166.417 129.355 169.194L130.597 169.334L132.739 173.822L134.849 169.109L139.536 168.071L136.246 164.818L137.208 159.965Z" fill="url(#paint28_linear_1_60)"/>
<path opacity="0.6" d="M155.583 174.439L149.344 174.663L146.178 169.811L143.54 175.645L137.084 177.637L142.019 181.031L141.274 186.893L155.583 174.439Z" fill="url(#paint29_linear_1_60)"/>
<path d="M181.81 120.582C181.81 120.582 186.372 118.45 186 127.819C185.627 137.188 185.286 174.832 185.286 174.832C185.286 174.832 185.472 179.769 184.199 180.75L186.217 180.498C186.217 180.498 187.676 120.245 186.931 119.095C186.186 117.945 181.81 120.582 181.81 120.582Z" fill="#FF4A4A"/>
<path d="M186.558 121.732C186.558 121.732 187.831 118.758 179.823 119.768C171.815 120.75 138.17 127.174 134.228 129.474C130.969 131.381 134.787 132.447 144.999 137.356C144.999 137.356 132.677 131.437 130.969 132.251C129.449 132.98 130.069 144.902 130.069 144.902C130.069 144.902 129.511 132.559 125.507 130.427L103.997 123.527C103.997 123.527 123.148 129.193 130.256 129.277C133.452 129.305 165.453 120.89 179.296 118.758C181.22 118.478 186.714 116.795 186.558 121.732Z" fill="url(#paint30_linear_1_60)"/>
<path d="M159.028 172.363C159.028 172.363 167.594 166.388 168.494 163.639C170.667 157.076 168.308 149.334 168.308 149.334C168.308 149.334 169.022 159.516 167.222 163.808C165.949 166.809 159.028 172.363 159.028 172.363Z" fill="url(#paint31_linear_1_60)"/>
<path opacity="0.6" d="M153.286 184.229L151.361 181.171L149.654 184.79L145.619 185.968L148.661 188.156L148.351 190.203L154.838 188.492L154.527 187.118L157.383 184.116L153.286 184.229Z" fill="url(#paint32_linear_1_60)"/>
<path opacity="0.6" d="M184.975 129.193L179.389 125.687L179.264 131.269L173.274 134.383L180.196 136.094L182.337 141.255L186.403 137.019H186.683L186.776 128.772L184.975 129.193Z" fill="url(#paint33_linear_1_60)"/>
<path opacity="0.6" d="M186.558 149.418L185.751 149.867L182.368 148.127L182.927 152.026L180.102 154.916L183.951 155.393L185.658 158.955L186.465 157.132L186.558 149.418Z" fill="url(#paint34_linear_1_60)"/>
<path opacity="0.6" d="M186.186 180.498L186.248 174.439L180.847 171.073L180.723 176.655L177.992 178.086L186.186 180.498Z" fill="url(#paint35_linear_1_60)"/>
<path opacity="0.3" d="M74.946 149.895L72.3078 143.639L71.0973 145.603C71.0973 149.867 71.0973 154.186 71.0973 158.198L71.6249 158.057L77.2428 162.349L76.4668 155.701L81.4019 152.055L74.946 149.895Z" fill="url(#paint36_linear_1_60)"/>
<path opacity="0.4" d="M100.77 183.471L94.6861 180.021L95.8035 185.547C99.3728 186.501 103.222 187.511 106.977 188.52L105.705 187.23L106.698 180.386L100.77 183.471Z" fill="url(#paint37_linear_1_60)"/>
<path opacity="0.6" d="M129.666 161.115L126.376 160.526L128.455 164.705L125.414 168.632L129.355 169.222L129.666 161.115Z" fill="url(#paint38_linear_1_60)"/>
<path d="M128.3 192.924C127.648 189.39 127.835 185.687 130.038 172.532C130.038 172.532 128.331 194.299 133.515 192.84C133.484 192.84 128.642 194.888 128.3 192.924Z" fill="url(#paint39_linear_1_60)"/>
<path opacity="0.4" d="M94.0033 113.26L103.315 114.803L114.178 114.326L110.826 116.346L118.213 118.282L106.232 118.029L99.2797 119.74L95.9586 117.496L85.0643 116.57L94.3757 115.504L94.0033 113.26Z" fill="url(#paint40_linear_1_60)"/>
<path d="M126.065 118.31L135.408 119.852L146.271 119.375L142.919 121.395L150.306 123.303L138.294 123.05L131.373 124.761L128.052 122.545L117.158 121.62L126.438 120.526L126.065 118.31Z" fill="url(#paint41_linear_1_60)"/>
<path opacity="0.4" d="M118.772 108.183L125.693 109.333L133.763 108.997L131.28 110.483L136.742 111.914L127.835 111.718L122.682 112.98L120.23 111.325L112.129 110.652L119.051 109.838L118.772 108.183Z" fill="url(#paint42_linear_1_60)"/>
<path d="M153.286 113.681L160.207 114.803L168.277 114.467L165.794 115.953L171.257 117.384L162.349 117.188L157.196 118.478L154.744 116.823L146.675 116.122L153.565 115.336L153.286 113.681Z" fill="url(#paint43_linear_1_60)"/>
<path opacity="0.3" d="M151.765 109.474C150.027 109.053 148.289 108.856 146.644 108.464L146.706 108.913L142.081 109.446L147.482 109.894L149.127 111.016L152.572 110.175L154.745 110.231C153.782 109.979 152.758 109.726 151.765 109.474Z" fill="url(#paint44_linear_1_60)"/>
<path opacity="0.5" d="M103.594 187.006L105.518 187.539V127.482C105.518 127.482 105.239 123.695 111.074 122.545L104.68 123.864C104.68 123.864 101.763 123.864 102.321 128.632C102.849 133.401 103.594 187.006 103.594 187.006Z" fill="#5B0909"/>
<path d="M103.159 187.707L103.532 126.22C103.532 126.22 103.284 123.807 105.705 123.359C108.126 122.91 161.852 110.876 161.852 110.876L145.433 107.145L92.3272 119.656C92.3272 119.656 90.3718 119.88 90.3718 123.162C90.3718 125.799 90.3718 184.229 90.3718 184.229L103.159 187.707Z" fill="url(#paint45_linear_1_60)"/>
<path d="M138.76 115.617C124.017 118.871 107.35 122.573 105.58 123.05C102.321 123.948 102.725 126.977 102.756 127.342V187.707H103.501V127.314V127.258C103.47 127.146 102.973 124.453 105.798 123.695C107.505 123.218 124.017 119.544 138.729 116.318C138.698 116.066 138.729 115.841 138.76 115.617Z" fill="#FFC969"/>
<path opacity="0.5" d="M153.627 188.324L151.703 188.857V128.801C151.703 128.801 151.982 125.014 146.147 123.864L152.541 125.182C152.541 125.182 155.458 125.182 154.9 129.951C154.372 134.719 153.627 188.324 153.627 188.324Z" fill="#5B0909"/>
<path d="M154.062 189.025L153.689 127.538C153.689 127.538 153.937 125.126 151.485 124.677C149.065 124.228 94.2205 110.876 94.2205 110.876L110.64 107.819L164.863 120.974C164.863 120.974 166.818 121.199 166.818 124.481C166.818 127.117 166.818 185.547 166.818 185.547L154.062 189.025Z" fill="url(#paint46_linear_1_60)"/>
<path d="M153.689 189.025H154.403V128.66C154.465 128.296 154.838 125.266 151.579 124.369C148.444 123.499 96.8277 111.353 94.655 110.876L94.4688 111.521C94.9965 111.633 148.226 124.144 151.33 124.986C154.155 125.771 153.658 128.436 153.627 128.548V128.604V189.025H153.689Z" fill="#E55C00"/>
<path opacity="0.3" d="M104.867 120.582L120.727 117.3L110.888 115.168C110.888 115.14 105.767 117.131 104.867 120.582Z" fill="#5B0909"/>
<path opacity="0.3" d="M94.8413 118.927C94.8413 118.927 93.3825 125.35 103.966 125.659L94.8413 118.927Z" fill="#5B0909"/>
<path opacity="0.3" d="M121.068 111.213C116.351 110.063 101.949 111.213 101.949 111.213C101.949 111.213 107.97 108.099 112.533 107.763L122.558 109.894C122.558 109.894 121.565 111.325 121.068 111.213Z" fill="#5B0909"/>
<path opacity="0.3" d="M157.01 121.732L155.365 118.618L137.301 114.186C137.301 114.186 129.759 112.924 126.034 113.541L121.099 111.886C121.099 111.886 115.419 111.381 111.602 115.168L120.727 117.3C120.727 117.3 131.125 118.786 136.308 116.935C136.898 117.019 137.487 117.412 138.046 117.468L157.01 121.732Z" fill="#5B0909"/>
<path d="M167.718 72.6711C159.959 68.772 148.506 73.9614 144.098 79.0386C136.96 87.2855 130.535 99.9644 130.411 110.596C132.521 111.241 134.787 111.83 136.96 112.279C139.474 108.997 139.66 104.2 141.74 100.638C144.223 96.3739 147.451 92.4749 151.485 89.3051C154.465 86.9769 157.227 84.5926 161.418 85.4342C164.304 86.0232 168.246 89.6137 165.67 92.3346C165.701 92.3346 173.274 75.4762 167.718 72.6711Z" fill="url(#paint47_linear_1_60)"/>
<path d="M162.659 71.0446C163.125 71.1574 163.59 71.2702 164.056 71.383C163.621 71.242 163.156 71.1292 162.659 71.0446Z" fill="#FFE655"/>
<path d="M175.074 97.4679C175.136 93.5127 175.757 89.5015 175.323 85.5744C174.888 81.8717 174.05 76.4018 170.791 73.7931C169.022 72.3906 166.477 71.8857 164.087 71.3527C172.25 73.8773 168.277 84.8731 164.428 89.249C156.514 98.1411 132.087 98.5619 130.038 111.549L131.063 113.401C131.838 113.541 132.614 113.793 133.328 114.102C137.084 112.194 143.85 112.756 147.544 112.531C156.11 111.998 163.373 109.361 170.17 104.481C173.678 101.984 175.012 101.479 175.074 97.4679Z" fill="url(#paint48_linear_1_60)"/>
<path d="M133.67 105.518L133.173 105.042C133.359 104.873 138.201 100.778 149.344 96.963C160.921 93.0078 167.408 88.9966 168.556 79.263C168.929 76.2335 168.153 74.0456 166.228 72.8113C162.97 70.6795 157.383 71.7735 155.334 72.5869C155.117 72.6711 154.9 72.7552 154.62 72.8674C150.368 74.4383 139.07 78.6178 131.342 104.509L130.628 104.34C138.45 78.141 149.996 73.8773 154.341 72.2784C154.589 72.1942 154.838 72.1101 155.024 72.0259C157.196 71.1563 163.156 70.0063 166.663 72.3064C168.774 73.709 169.674 76.0933 169.27 79.3752C168.06 89.4454 161.418 93.5688 149.592 97.6362C138.605 101.367 133.732 105.49 133.67 105.518Z" fill="url(#paint49_linear_1_60)"/>
<path d="M166.415 86.3037C165.794 87.4257 165.08 88.4356 164.397 89.221C163.063 90.7357 161.262 91.998 159.183 93.092C161.293 94.2701 163.373 95.4763 165.484 96.5422C168.401 98.0008 171.319 99.5997 174.143 101.227C174.764 100.329 175.043 99.2351 175.074 97.4398C175.105 95.0555 175.354 92.6712 175.447 90.2869C172.902 89.221 166.911 86.5281 166.415 86.3037Z" fill="url(#paint50_linear_1_60)"/>
<path d="M124.762 108.239C120.696 106.697 117.251 102.882 113.123 100.806C108.995 98.7021 104.68 96.9349 100.987 94.186C96.0207 90.4833 89.9062 85.7147 94.7171 79.6838C91.7064 79.5155 79.1361 85.9952 80.8121 87.0891L79.9431 94.4384C81.8984 96.7386 82.6123 99.0387 85.5299 100.946C89.3475 103.415 94.1274 104.985 98.6589 105.883C107.381 107.65 116.971 109.165 124.948 111.493C124.482 110.371 124.42 109.305 124.762 108.239Z" fill="url(#paint51_linear_1_60)"/>
<path d="M122.062 91.4651C119.02 82.6852 113.34 73.7651 103.904 69.3331C100.49 67.7342 95.0896 65.3499 91.9237 67.0049C87.8267 69.1367 84.6298 74.1297 82.0847 77.608C79.074 81.6754 76.1254 84.8451 77.4911 89.9223C78.2049 92.6432 80.0362 96.0373 82.0226 98.0009C81.3708 94.775 80.5018 90.9321 83.0158 88.1831C85.8403 85.0975 92.5445 84.3402 96.7035 84.9853C103.594 86.0513 109.367 92.4188 113.433 97.0752C115.419 99.3192 122.713 110.624 124.296 110.736L126.686 109.838C126.624 109.614 126.562 109.417 126.5 109.193C124.514 103.611 124.11 97.2996 122.062 91.4651Z" fill="url(#paint52_linear_1_60)"/>
<path d="M103.904 69.333C103.904 69.305 103.904 69.305 103.904 69.333C102.88 72.8955 100.211 83.9194 99.7452 85.8269C103.004 87.0891 105.953 89.3893 108.56 91.8577C110.609 87.5379 113.185 83.4425 115.854 79.4032C112.812 75.2517 108.901 71.6613 103.904 69.333Z" fill="url(#paint53_linear_1_60)"/>
<path d="M121.627 110.596C121.565 110.596 113.681 109.502 96.3622 105.603C89.0993 103.976 84.3194 101.423 82.1157 98.057C80.5018 95.5605 80.9363 93.5128 81.0294 93.1761C81.0605 84.9292 90.9305 84.3682 91.5823 84.3402C97.9761 83.2462 105.177 87.2013 113.03 96.0934C118.834 102.685 122.465 109.109 122.496 109.165L122.124 109.754C121.968 109.474 106.325 82.4327 91.6754 84.9853H91.6134C91.2099 84.9853 81.7433 85.2939 81.7433 93.2042V93.2883C81.7433 93.3164 81.1846 95.308 82.7675 97.7204C84.1953 99.9083 87.7646 102.938 96.5484 104.929C113.837 108.828 121.782 110.063 121.875 110.063L121.627 110.596Z" fill="url(#paint54_linear_1_60)"/>
<path d="M97.5416 114.831C94.7481 117.917 94.0032 119.516 97.107 121.816C99.3728 123.499 102.228 124.621 104.494 126.22C105.456 115.813 117.158 108.492 127.09 112.84L126.003 108.885C116.971 106.304 103.904 107.819 97.5416 114.831Z" fill="url(#paint55_linear_1_60)"/>
<path d="M104.867 126.444L104.153 125.855C104.184 125.715 106.698 111.718 121.068 111.213L121.099 111.858C107.35 112.335 104.898 126.304 104.867 126.444Z" fill="url(#paint56_linear_1_60)"/>
<path d="M132.583 108.913L130.752 114.186C132.242 112.223 140.56 113.821 143.229 114.186C148.289 114.859 154.527 116.851 156.638 121.311C157.848 118.45 157.072 113.934 159.897 111.521C154.993 104.06 139.815 105.659 132.583 108.913Z" fill="url(#paint57_linear_1_60)"/>
<path d="M156.296 121.423C153.13 114.467 137.922 113.737 137.767 113.737L137.798 113.092C138.45 113.12 153.627 113.878 156.948 121.199L156.296 121.423Z" fill="url(#paint58_linear_1_60)"/>
<path d="M124.482 102.18C125.072 105.687 120.944 111.858 120.479 111.97C122.124 116.29 129.293 115.056 133.483 114.775C136.96 114.551 137.487 114.607 138.294 111.886C138.915 109.81 138.853 108.744 139.257 106.669C134.042 103.162 128.859 105.406 124.482 102.18Z" fill="url(#paint59_linear_1_60)"/>
<path d="M138.915 108.772C138.977 108.267 139.07 107.734 139.163 107.145C137.922 106.781 127.959 105.266 124.172 105.182C123.893 106.136 123.489 107.117 123.024 108.043C128.331 108.043 133.67 108.183 138.915 108.772Z" fill="url(#paint60_linear_1_60)"/>
<path d="M166.818 134.523V128.183C162.845 130.091 158.779 131.858 154.713 133.597C154.372 133.737 154.403 144.537 154.776 144.256C158.531 141.199 165.856 135.28 166.818 134.523Z" fill="url(#paint61_linear_1_60)"/>
</g>
<path d="M131.35 52.7156C130.83 52.7346 130.309 52.7537 129.742 52.5915C127.482 52.1804 124.991 50.4791 122.586 47.8968C119.95 45.0303 117.428 40.9891 115.3 36.2384C114.725 34.8329 114.126 33.3367 113.588 31.8749C112.612 28.9294 111.92 26.0649 111.435 23.394C110.693 18.7207 110.749 14.4937 111.547 11.3004C112.255 8.36638 113.619 6.34116 115.488 5.44973L121.478 3.84055L121.61 4.14665C119.911 5.28792 118.717 7.56297 118.17 10.5094C117.542 13.9525 117.594 18.3951 118.606 23.2963C119.034 25.5486 119.684 27.8476 120.457 30.2153C120.886 31.4616 121.353 32.6516 121.82 33.8417C123.679 38.3644 126.054 42.2464 128.492 45.1567C130.466 47.4987 132.498 49.2534 134.479 50.2051C135.254 50.5609 136.068 50.8603 136.834 50.9786L136.828 51.3629C136.828 51.3629 132.504 52.5088 132.306 52.5526C131.97 52.6746 131.672 52.7404 131.35 52.7156Z" fill="url(#paint62_radial_1_60)"/>
<path d="M131.35 52.7155C130.829 52.7345 130.309 52.7536 129.742 52.5914L134.738 51.2015L134.417 50.1707C135.193 50.5264 136.006 50.8259 136.772 50.9442L136.767 51.3285C136.767 51.3285 132.443 52.4743 132.244 52.5182C131.969 52.6745 131.671 52.7403 131.35 52.7155Z" fill="url(#paint63_linear_1_60)"/>
<path d="M127.79 46.7004L122.609 47.9873C119.973 45.1208 117.452 41.0795 115.324 36.3289L120.58 34.9294L121.882 33.8759C123.74 38.3986 125.421 41.4281 127.882 44.429L127.79 46.7004Z" fill="url(#paint64_linear_1_60)"/>
<path d="M116.79 21.972L111.558 23.462C110.815 18.7887 110.872 14.5617 111.67 11.3683L116.949 10.0595L118.006 12.5082C117.378 15.9514 117.547 17.2072 118.498 22.0741L116.79 21.972Z" fill="url(#paint65_linear_1_60)"/>
<path d="M137.585 51.2432C136.752 51.4749 135.811 51.491 134.922 51.3041C132.638 50.8024 130.209 49.1354 127.842 46.4969C125.206 43.6304 122.684 39.5891 120.679 34.9071C120.066 33.5578 119.528 32.096 118.99 30.6342C118.014 27.6887 117.261 24.7899 116.814 22.0628C116.072 17.3894 116.09 13.2187 116.888 10.0253C117.506 7.35071 118.771 5.34741 120.418 4.40924C120.792 4.23095 121.165 4.05267 121.601 3.90871C123.266 3.4454 125.105 3.85364 127.01 4.91791C128.878 6.03844 130.81 7.81499 132.662 10.0883C134.915 12.8957 137.021 16.5498 138.785 20.7102C139.314 21.9345 139.804 23.2152 140.196 24.5177C140.945 26.7948 141.595 29.0938 142 31.2555C142.823 35.4321 143.056 39.3559 142.679 42.5521C142.345 45.3078 141.609 47.5295 140.449 49.1266C139.729 50.1954 138.754 50.8896 137.585 51.2432Z" fill="url(#paint66_radial_1_60)"/>
<path d="M135.158 42.9178C131.094 44.0541 125.453 38.1151 122.596 29.5503C119.701 21.0417 120.636 13.1246 124.7 11.9882C128.764 10.8519 134.405 16.7909 137.262 25.3557C140.158 33.8643 139.222 41.7814 135.158 42.9178Z" fill="url(#paint67_radial_1_60)"/>
<path d="M124.152 10.2892C123.816 10.4112 123.48 10.5333 123.206 10.6896L120.417 4.4085C120.791 4.23022 121.165 4.05193 121.6 3.90797C123.265 3.44466 125.105 3.8529 127.01 4.91717L127.959 10.7901C126.593 10.1816 125.283 9.99177 124.152 10.2892Z" fill="white"/>
<path d="M120.204 23.1812L116.752 22.0272C116.01 17.3538 116.028 13.1831 116.826 9.98974L120.568 14.4802C119.917 16.8268 119.753 19.8323 120.204 23.1812Z" fill="white"/>
<path d="M127.743 46.5194C125.107 43.6529 122.585 39.6117 120.58 34.9297L123.008 32.957C124.57 36.5395 126.61 39.5376 128.637 41.6765L127.743 46.5194Z" fill="white"/>
<path d="M137.585 51.2434C136.752 51.475 135.811 51.4912 134.922 51.3042L133.846 44.741C134.513 44.8812 135.232 44.8183 135.828 44.6868C136.66 44.4551 137.422 43.9517 138.014 43.1984L140.61 49.1391C139.729 50.1956 138.754 50.8897 137.585 51.2434Z" fill="white"/>
<path d="M142.679 42.5521L139.707 38.8017C140.098 36.4646 140.025 33.5591 139.461 30.3791L142 31.2555C142.823 35.4321 143.056 39.3559 142.679 42.5521Z" fill="white"/>
<path d="M136.958 22.1663C135.661 19.196 134.159 16.6538 132.44 14.6865L132.586 10.2001C134.839 13.0075 136.945 16.6616 138.71 20.822L136.958 22.1663Z" fill="white"/>
<path d="M123.31 29.376C125.807 36.7371 130.611 41.9081 134.039 40.9259C137.468 39.9436 138.223 33.18 135.726 25.8188C133.229 18.4577 128.425 13.2866 124.997 14.2689C121.568 15.2512 120.813 22.0148 123.31 29.376Z" stroke="white" stroke-width="0.982" stroke-miterlimit="10" stroke-dasharray="2.75 2.75"/>
<path d="M135.158 42.9178C134.96 42.9616 134.822 43.0398 134.661 43.0274C138.286 41.4133 138.956 33.89 136.193 25.6875C133.43 17.485 128.134 11.6614 124.227 12.1884C124.364 12.1103 124.563 12.0664 124.7 11.9882C128.764 10.8519 134.405 16.7909 137.262 25.3557C140.158 33.8643 139.222 41.7814 135.158 42.9178Z" fill="url(#paint68_radial_1_60)"/>
<path d="M124.024 29.188C121.87 22.719 122.581 16.7671 125.613 15.9063C126.049 15.7623 126.47 15.7652 126.914 15.8587C129.818 16.3194 133.205 20.457 135.124 26.0201C137.043 31.5831 136.725 36.8257 134.633 38.6763C134.283 38.9452 133.932 39.2141 133.535 39.3018C130.502 40.1626 126.217 35.6006 124.024 29.188Z" fill="url(#paint69_radial_1_60)"/>
<path d="M125.292 28.8124C123.184 22.5246 123.82 16.6852 126.852 15.8244L126.952 15.8025C129.855 16.2632 133.242 20.4008 135.161 25.9639C137.081 31.5269 136.763 36.7694 134.67 38.6201L134.571 38.642C131.6 39.5372 127.4 35.1001 125.292 28.8124Z" fill="url(#paint70_radial_1_60)"/>
<path d="M134.861 51.2692C133.688 51.0012 132.667 50.5081 131.684 49.9588C130.738 49.3532 129.807 48.6009 129.037 47.8609C127.374 46.3122 126.023 44.5509 124.771 42.7678C123.558 40.9283 122.481 39.0107 121.504 37.0711C120.527 35.1316 119.825 33.0356 118.985 31.0179C117.542 26.8823 116.596 22.6371 116.269 18.351C116.125 16.1798 116.141 14.021 116.479 11.887C116.817 9.75298 117.416 7.60947 118.85 5.85602C117.477 7.64381 116.94 9.82165 116.64 11.8994C116.302 14.0334 116.347 16.2265 116.468 18.3071C116.794 22.5933 117.741 26.8385 119.222 30.9178C120 32.9012 120.702 34.9971 121.68 36.9367C122.619 38.9325 123.695 40.8501 124.947 42.6333C126.16 44.4728 127.549 46.1778 129.174 47.7827C130.006 48.557 130.875 49.2751 131.783 49.9369C132.667 50.5081 133.749 51.0355 134.861 51.2692Z" fill="white"/>
<path d="M125.65 29.7874C125.518 29.4813 125.424 29.119 125.292 28.8129C123.123 22.4908 123.82 16.6857 126.852 15.8249L126.952 15.803C128.384 16.0615 129.991 17.1915 131.404 18.9871C132.792 20.6921 134.124 22.9845 135.029 25.6583C132.003 25.1289 127.925 25.4061 125.65 29.7874Z" fill="url(#paint71_linear_1_60)"/>
<path d="M125.65 29.7874C125.518 29.4813 125.424 29.119 125.292 28.8129C123.123 22.4908 123.82 16.6857 126.852 15.8249L126.952 15.803C128.384 16.0615 129.991 17.1915 131.404 18.9871C132.792 20.6921 134.124 22.9845 135.029 25.6583C132.003 25.1289 127.925 25.4061 125.65 29.7874Z" fill="url(#paint72_linear_1_60)"/>
<path d="M56.1704 206.916C56.1704 206.916 42.5674 208.355 36.7497 205.353C30.9321 202.351 27.7042 195.975 26.5298 187.927C25.3038 179.909 27.112 170.028 32.4914 166.379C32.7486 166.221 33.0571 166.031 33.3657 165.842C39.3529 162.71 53.1394 162.528 58.3347 163.377C58.3347 163.377 59.646 163.531 61.4438 164.139C64.1232 165.027 67.7757 166.825 69.8065 170.373C73.1685 176.324 75.5436 187.609 72.6281 197.006C69.6447 206.514 56.1704 206.916 56.1704 206.916Z" fill="url(#paint73_radial_1_60)"/>
<path d="M45.5406 205.499C45.5406 205.499 59.9163 207.627 67.3473 202.101C74.8132 196.622 73.9336 179.073 67.1389 176.671C60.3092 174.222 49.0623 177.023 42.5291 184.67C35.9794 192.396 39.8036 203.818 45.5406 205.499Z" fill="url(#paint74_radial_1_60)"/>
<path opacity="0.2" d="M30.2005 170.459C30.2005 170.459 37.1571 169.747 38.1152 174.777C39.0733 179.806 37.7473 197.409 35.7432 202.683C33.4524 208.682 21.693 178.977 30.2005 170.459Z" fill="url(#paint75_radial_1_60)"/>
<path d="M49.8926 173.498C62.5622 175.647 68.3166 169.575 65.4832 166.863C56.7204 158.27 11.7293 167.147 49.8926 173.498Z" fill="url(#paint76_radial_1_60)"/>
<path d="M63.8767 184.382C65.0635 185.188 66.8855 184.783 67.946 183.478C69.0066 182.173 68.9042 180.462 67.7173 179.657C66.5305 178.851 64.7085 179.256 63.648 180.561C62.5874 181.866 62.6898 183.577 63.8767 184.382Z" fill="black"/>
<path d="M67.9188 182.974C66.9637 184.11 65.4155 184.444 64.3927 183.771C63.335 183.051 63.2874 181.573 64.191 180.469C65.0947 179.366 66.6943 178.999 67.7172 179.672C68.74 180.346 68.8739 181.839 67.9188 182.974Z" fill="url(#paint77_linear_1_60)"/>
<path d="M55.9769 191.715C57.1638 192.521 58.9857 192.116 60.0463 190.811C61.1069 189.506 61.0045 187.795 59.8176 186.989C58.6307 186.184 56.8088 186.589 55.7482 187.894C54.6876 189.199 54.79 190.91 55.9769 191.715Z" fill="black"/>
<path d="M60.0559 190.344C59.1009 191.479 57.5012 191.845 56.4435 191.125C55.3858 190.405 55.3033 188.879 56.2069 187.776C57.162 186.641 58.7617 186.274 59.8194 186.994C60.8771 187.715 61.011 189.208 60.0559 190.344Z" fill="url(#paint78_linear_1_60)"/>
<path d="M47.3549 198.868C48.5419 199.673 50.3639 199.268 51.4243 197.963C52.4848 196.658 52.3822 194.947 51.1952 194.142C50.0082 193.336 48.1863 193.741 47.1258 195.046C46.0653 196.352 46.1679 198.062 47.3549 198.868Z" fill="black"/>
<path d="M51.4315 197.289C50.5793 198.361 49.0311 198.696 48.0946 198.038C47.0717 197.365 47.0076 195.965 47.9113 194.861C48.7635 193.79 50.3117 193.455 51.2482 194.112C52.1848 194.77 52.2838 196.217 51.4315 197.289Z" fill="url(#paint79_linear_1_60)"/>
<path d="M62.3511 198.605C63.538 199.411 65.36 199.006 66.4205 197.701C67.4811 196.396 67.3787 194.685 66.1918 193.88C65.0049 193.074 63.183 193.479 62.1224 194.784C61.0619 196.089 61.1643 197.8 62.3511 198.605Z" fill="black"/>
<path d="M66.424 197.118C65.5203 198.222 64.0236 198.525 63.0007 197.852C61.9779 197.179 61.8788 195.732 62.7825 194.629C63.6862 193.525 65.1829 193.222 66.2058 193.895C67.1772 194.6 67.2762 196.046 66.424 197.118Z" fill="url(#paint80_linear_1_60)"/>
<path d="M49.0867 185.051C50.2736 185.857 52.0955 185.452 53.1561 184.147C54.2167 182.842 54.1143 181.131 52.9274 180.326C51.7405 179.52 49.9186 179.925 48.858 181.23C47.7974 182.535 47.8998 184.246 49.0867 185.051Z" fill="black"/>
<path d="M53.1528 183.556C52.2491 184.66 50.701 184.995 49.6781 184.321C48.6553 183.648 48.5562 182.202 49.4599 181.098C50.3636 179.994 51.9118 179.66 52.9346 180.333C53.9575 181.006 54.0565 182.453 53.1528 183.556Z" fill="url(#paint81_linear_1_60)"/>
<path d="M61.9738 169.811C63.5809 169.944 64.9268 169.598 64.9798 169.036C65.0328 168.475 63.773 167.911 62.1658 167.778C60.5587 167.645 59.2129 167.991 59.1598 168.553C59.1068 169.114 60.3667 169.677 61.9738 169.811Z" fill="black"/>
<path d="M65.0542 168.91C65.0064 169.351 63.9578 169.653 62.6814 169.546C61.4051 169.44 60.4189 169.018 60.4833 168.499C60.5311 168.059 61.5797 167.757 62.8561 167.863C64.081 168.001 65.102 168.47 65.0542 168.91Z" fill="url(#paint82_linear_1_60)"/>
<path d="M55.4321 165.482C57.0393 165.615 58.3778 165.343 58.4218 164.875C58.4658 164.408 57.1986 163.921 55.5915 163.788C53.9844 163.655 52.6458 163.926 52.6018 164.394C52.5578 164.862 53.825 165.349 55.4321 165.482Z" fill="black"/>
<path d="M48.2837 165.92C49.8908 166.053 51.2293 165.782 51.2734 165.314C51.3175 164.846 50.0504 164.359 48.4433 164.226C46.8362 164.093 45.4977 164.364 45.4536 164.832C45.4095 165.299 46.6766 165.787 48.2837 165.92Z" fill="black"/>
<path d="M40.9484 166.166C42.5555 166.299 43.894 166.027 43.938 165.559C43.982 165.092 42.7149 164.605 41.1077 164.472C39.5006 164.339 38.1621 164.61 38.1181 165.078C38.0741 165.546 39.3412 166.033 40.9484 166.166Z" fill="black"/>
<path d="M54.8748 170.444C56.4819 170.578 57.8277 170.23 57.8807 169.669C57.9336 169.108 56.6737 168.545 55.0665 168.411C53.4593 168.278 52.1135 168.625 52.0606 169.186C52.0076 169.748 53.2676 170.311 54.8748 170.444Z" fill="black"/>
<path d="M47.6286 170.781C49.2358 170.914 50.5814 170.567 50.6342 170.005C50.6871 169.444 49.427 168.881 47.8199 168.748C46.2128 168.615 44.8671 168.963 44.8143 169.524C44.7615 170.085 46.0215 170.648 47.6286 170.781Z" fill="black"/>
<path d="M35.5258 182.892C36.3483 182.936 37.0954 181.603 37.1946 179.914C37.2938 178.226 36.7074 176.822 35.8849 176.778C35.0624 176.734 34.3152 178.067 34.2161 179.756C34.1169 181.444 34.7032 182.848 35.5258 182.892Z" fill="black"/>
<path d="M36.8811 179.372C36.824 180.709 36.1958 181.781 35.4888 181.736C34.7817 181.69 34.3062 180.544 34.3633 179.207C34.4204 177.87 35.0486 176.799 35.7556 176.844C36.4626 176.889 36.9896 178.004 36.8811 179.372Z" fill="url(#paint83_linear_1_60)"/>
<path d="M34.4447 197.322C35.2672 197.365 36.014 196.032 36.1128 194.344C36.2116 192.656 35.6249 191.252 34.8024 191.208C33.9799 191.165 33.2331 192.498 33.1343 194.186C33.0356 195.874 33.6223 197.278 34.4447 197.322Z" fill="black"/>
<path d="M28.2408 191.446C28.9262 191.483 29.5489 190.372 29.6315 188.965C29.7141 187.558 29.2255 186.388 28.5401 186.352C27.8547 186.315 27.232 187.426 27.1494 188.833C27.0667 190.239 27.5554 191.409 28.2408 191.446Z" fill="black"/>
<path d="M28.9842 177.934C29.6696 177.971 30.292 176.86 30.3743 175.453C30.4566 174.046 29.9677 172.876 29.2823 172.84C28.5969 172.803 27.9745 173.914 27.8922 175.321C27.8099 176.728 28.2988 177.898 28.9842 177.934Z" fill="black"/>
<path d="M57.2523 169.592C57.2045 170.033 56.1559 170.335 54.8795 170.228C53.6032 170.122 52.6171 169.7 52.6814 169.181C52.7292 168.741 53.7778 168.439 55.0542 168.545C56.2791 168.683 57.3001 169.152 57.2523 169.592Z" fill="url(#paint84_linear_1_60)"/>
<path d="M50.0171 169.927C49.9693 170.368 48.9206 170.67 47.6442 170.563C46.3679 170.457 45.3818 170.035 45.4461 169.516C45.4939 169.076 46.5425 168.774 47.8189 168.88C49.0438 169.018 50.0648 169.487 50.0171 169.927Z" fill="url(#paint85_linear_1_60)"/>
<path d="M43.1517 165.514C43.1204 165.876 42.0883 166.099 40.8119 165.993C39.5356 165.887 38.5843 165.512 38.6156 165.15C38.6469 164.789 39.679 164.565 40.9553 164.672C42.1454 164.762 43.1829 165.153 43.1517 165.514Z" fill="url(#paint86_linear_1_60)"/>
<path d="M50.6816 165.271C50.6504 165.633 49.6182 165.856 48.3419 165.75C47.0655 165.644 46.1143 165.269 46.1456 164.907C46.1768 164.545 47.2089 164.322 48.4853 164.429C49.7267 164.488 50.7129 164.91 50.6816 165.271Z" fill="url(#paint87_linear_1_60)"/>
<path d="M57.8476 164.841C57.8164 165.203 56.7843 165.426 55.5079 165.32C54.2316 165.214 53.2803 164.839 53.3116 164.477C53.3428 164.115 54.375 163.892 55.6513 163.999C56.8413 164.089 57.8789 164.479 57.8476 164.841Z" fill="url(#paint88_linear_1_60)"/>
<path d="M35.8519 193.64C35.7948 194.977 35.1666 196.048 34.4596 196.003C33.7525 195.958 33.277 194.812 33.3341 193.475C33.3912 192.138 34.0194 191.066 34.7264 191.111C35.4683 191.204 35.909 192.303 35.8519 193.64Z" fill="url(#paint89_linear_1_60)"/>
<path d="M29.3774 188.438C29.3185 189.571 28.8097 190.5 28.189 190.471C27.6197 190.409 27.2323 189.483 27.2563 188.303C27.3152 187.171 27.824 186.241 28.4447 186.271C29.0654 186.301 29.4363 187.306 29.3774 188.438Z" fill="url(#paint90_linear_1_60)"/>
<path d="M30.1541 174.941C30.0952 176.074 29.5864 177.003 28.9657 176.973C28.3964 176.912 28.009 175.985 28.033 174.806C28.0919 173.673 28.6007 172.744 29.2214 172.774C29.8421 172.803 30.213 173.809 30.1541 174.941Z" fill="url(#paint91_linear_1_60)"/>
<path d="M71.2504 169.77C71.2504 169.77 58.0368 171.127 52.4032 168.165C46.7696 165.203 43.6927 159.021 42.603 151.222C41.4595 143.45 43.2893 133.811 48.5273 130.313C48.766 130.124 49.0896 129.957 49.3592 129.817C55.183 126.799 68.582 126.653 73.6138 127.509C73.6138 127.509 74.8775 127.704 76.5805 128.259C79.139 129.155 82.7225 130.892 84.604 134.361C87.7963 140.156 90.0815 151.126 87.1651 160.283C84.3335 169.46 71.2504 169.77 71.2504 169.77Z" fill="url(#paint92_radial_1_60)"/>
<path d="M60.9558 168.374C60.9558 168.374 74.8566 170.516 82.128 165.246C89.3994 159.975 88.4536 145.894 81.8262 143.512C75.1989 141.13 64.4964 140.794 58.1351 148.207C51.743 155.57 55.3998 166.679 60.9558 168.374Z" fill="url(#paint93_radial_1_60)"/>
<path d="M46.3184 134.202C46.3184 134.202 49.9862 134.588 50.8974 139.475C51.8086 144.361 54.3733 160.348 51.1468 164.895C47.8894 169.392 39.1325 141.323 46.3184 134.202Z" fill="url(#paint94_radial_1_60)"/>
<path d="M65.9744 139.048C79.2745 141.828 84.7037 135.094 81.6821 132.086C72.1162 122.601 25.7968 130.721 65.9744 139.048Z" fill="url(#paint95_radial_1_60)"/>
<path d="M76.7624 150.315C77.7286 151.419 79.6183 151.508 80.9831 150.513C82.3479 149.519 82.671 147.818 81.7048 146.715C80.7386 145.611 78.849 145.523 77.4842 146.517C76.1194 147.511 75.7962 149.212 76.7624 150.315Z" fill="black"/>
<path d="M81.1586 149.869C80.0417 150.709 78.4775 150.604 77.6681 149.651C76.8587 148.699 77.1355 147.314 78.2524 146.474C79.3692 145.634 80.9334 145.738 81.7428 146.691C82.5523 147.644 82.2755 149.029 81.1586 149.869Z" fill="url(#paint96_linear_1_60)"/>
<path d="M69.1209 157.145C70.0871 158.249 71.9766 158.337 73.3412 157.343C74.7058 156.349 75.0287 154.648 74.0624 153.545C73.0962 152.441 71.2067 152.353 69.8421 153.347C68.4775 154.342 68.1546 156.042 69.1209 157.145Z" fill="black"/>
<path d="M61.375 164.166C62.3413 165.269 64.2308 165.357 65.5953 164.363C66.9599 163.369 67.2828 161.668 66.3166 160.565C65.3503 159.461 63.4608 159.373 62.0963 160.367C60.7317 161.362 60.4088 163.062 61.375 164.166Z" fill="black"/>
<path d="M66.5651 134.402C68.2419 134.298 69.5548 133.63 69.4976 132.911C69.4405 132.193 68.0348 131.694 66.358 131.799C64.6813 131.903 63.3683 132.57 63.4255 133.289C63.4827 134.008 64.8883 134.506 66.5651 134.402Z" fill="black"/>
<path d="M66.658 132.029C65.1633 132.15 64 132.687 64.008 133.271C64.0698 133.827 65.3182 134.226 66.7899 134.182C68.2846 134.061 69.4478 133.524 69.4399 132.94C69.4011 132.307 68.1527 131.908 66.658 132.029Z" fill="url(#paint97_linear_1_60)"/>
<path d="M45.3589 143.044C46.1136 143.039 46.7097 141.841 46.6903 140.368C46.6709 138.896 46.0433 137.707 45.2886 137.712C44.5338 137.717 43.9377 138.915 43.9571 140.387C43.9766 141.86 44.6041 143.049 45.3589 143.044Z" fill="black"/>
<path d="M45.3349 142.684C44.6954 142.688 44.1248 141.546 44.0703 140.202C44.0697 138.83 44.5855 137.714 45.225 137.709C45.8645 137.704 46.4352 138.846 46.4896 140.19C46.5441 141.534 45.9744 142.679 45.3349 142.684Z" fill="url(#paint98_linear_1_60)"/>
<path d="M49.5242 161.747C50.279 161.742 50.8751 160.544 50.8557 159.071C50.8363 157.599 50.2087 156.41 49.4539 156.415C48.6992 156.42 48.1031 157.618 48.1225 159.09C48.1419 160.563 48.7695 161.752 49.5242 161.747Z" fill="black"/>
<path d="M49.5346 161.288C48.8412 161.321 48.2705 160.179 48.3008 158.856C48.3002 157.484 48.8468 156.417 49.4863 156.412C50.1798 156.38 50.7504 157.522 50.7201 158.844C50.7746 160.188 50.1741 161.284 49.5346 161.288Z" fill="url(#paint99_linear_1_60)"/>
<path d="M73.4556 156.735C72.3388 157.575 70.7746 157.471 69.9652 156.518C69.1557 155.565 69.4325 154.18 70.5494 153.34C71.6663 152.5 73.2305 152.604 74.0399 153.557C74.8493 154.51 74.5725 155.895 73.4556 156.735Z" fill="url(#paint100_linear_1_60)"/>
<path d="M65.7927 163.776C64.6758 164.616 63.1117 164.512 62.3023 163.559C61.4928 162.606 61.7696 161.221 62.8865 160.381C64.0034 159.541 65.5676 159.646 66.377 160.598C67.1864 161.551 66.9405 162.986 65.7927 163.776Z" fill="url(#paint101_linear_1_60)"/>
<path d="M220.707 196.004C220.556 196.696 220.314 197.324 219.898 197.896C218.287 200.556 214.722 202.843 209.773 204.693C204.357 206.747 197.2 208.18 189.257 208.73C186.878 208.858 184.498 208.985 182.016 208.974C177.215 208.934 172.627 208.645 168.404 208.013C161.068 206.995 154.849 205.098 150.388 202.771C146.376 200.692 143.868 198.138 143.403 195.421L143.679 187.374L144.167 187.318C145.109 189.904 147.932 192.347 152.168 194.25C157.036 196.529 163.733 198.296 171.373 199.129C174.904 199.541 178.576 199.788 182.462 199.785C184.526 199.769 186.51 199.763 188.473 199.609C196.019 199.179 202.8 198.015 208.258 196.256C212.608 194.851 216.082 193.098 218.356 191.035C219.239 190.258 220.02 189.344 220.475 188.467L221.076 188.621C221.076 188.621 220.896 194.41 220.846 194.64C220.837 195.165 220.808 195.543 220.707 196.004Z" fill="url(#paint102_radial_1_60)"/>
<path d="M220.707 196.005C220.556 196.697 220.314 197.324 219.898 197.897L220.024 191.141L218.356 191.036C219.239 190.259 220.02 189.344 220.476 188.467L221.076 188.622C221.076 188.622 220.897 194.41 220.846 194.641C220.838 195.166 220.808 195.544 220.707 196.005Z" fill="url(#paint103_linear_1_60)"/>
<path d="M210.133 197.835L209.784 204.766C204.368 206.82 197.21 208.253 189.268 208.804L189.434 201.744L188.483 199.682C196.029 199.253 201.306 198.563 206.764 196.804L210.133 197.835Z" fill="url(#paint104_linear_1_60)"/>
<path d="M168.56 200.882L168.476 207.932C161.14 206.914 154.92 205.017 150.46 202.691L150.799 195.685L154.816 195.442C159.683 197.722 161.545 198.029 169.278 198.926L168.56 200.882Z" fill="url(#paint105_linear_1_60)"/>
<path d="M221.196 187.709C221.189 188.833 220.775 190.005 220.096 191.058C218.393 193.653 214.828 195.94 209.879 197.79C204.453 199.77 197.377 201.194 189.434 201.744C187.136 201.862 184.756 201.989 182.356 201.969C177.555 201.929 172.875 201.576 168.663 201.018C161.408 199.99 155.199 198.167 150.82 195.83C147.153 193.861 144.686 191.601 143.918 189.069C143.764 188.563 143.681 187.974 143.69 187.448C143.705 185.2 145.063 183.094 147.611 181.224C150.078 179.364 153.573 177.759 157.852 176.436C163.005 174.862 169.39 173.819 176.275 173.392C178.33 173.302 180.384 173.213 182.541 173.261C186.263 173.277 189.926 173.45 193.375 173.872C200.008 174.597 205.911 176.007 210.543 177.79C214.483 179.353 217.56 181.242 219.334 183.282C220.517 184.642 221.223 186.133 221.196 187.709Z" fill="url(#paint106_radial_1_60)"/>
<path d="M207.717 187.107C207.659 192.581 196.369 196.967 182.384 196.873C168.408 196.853 157.107 192.327 157.165 186.853C157.223 181.379 168.594 176.983 182.499 177.087C196.474 177.107 207.775 181.633 207.717 187.107Z" fill="url(#paint107_radial_1_60)"/>
<path d="M154.358 186.881C154.338 187.332 154.401 187.775 154.544 188.207L143.907 188.997C143.753 188.49 143.67 187.901 143.679 187.375C143.694 185.127 145.052 183.021 147.6 181.151L156.717 182.486C155.245 183.781 154.384 185.305 154.358 186.881Z" fill="white"/>
<path d="M171.847 197.201L168.652 200.943C161.397 199.916 155.188 198.092 150.809 195.756L159.123 193.14C162.26 194.872 166.678 196.305 171.847 197.201Z" fill="white"/>
<path d="M209.879 197.79C204.452 199.77 197.376 201.194 189.434 201.744L187.573 197.916C193.553 197.519 198.931 196.369 202.995 194.697L209.879 197.79Z" fill="white"/>
<path d="M221.196 187.71C221.188 188.834 220.774 190.006 220.095 191.059L209.798 189.562C210.264 188.758 210.486 187.984 210.524 187.08C210.532 185.956 210.122 184.805 209.316 183.776L219.313 183.136C220.517 184.643 221.222 186.134 221.196 187.71Z" fill="white"/>
<path d="M210.451 177.725L203.55 179.802C200.2 178.32 195.905 177.173 190.94 176.552L193.364 173.798C199.997 174.524 205.808 175.869 210.451 177.725Z" fill="white"/>
<path d="M177.574 176.162C172.662 176.509 168.148 177.335 164.428 178.517L157.76 176.372C162.913 174.799 169.298 173.755 176.183 173.328L177.574 176.162Z" fill="white"/>
<path d="M204.304 187.7C204.334 183.063 194.556 179.264 182.465 179.214C170.374 179.165 160.547 182.883 160.517 187.52C160.487 192.157 170.265 195.956 182.357 196.005C194.448 196.055 204.274 192.336 204.304 187.7Z" stroke="white" stroke-width="1.3523" stroke-miterlimit="10" stroke-dasharray="3.79 3.79"/>
<path d="M207.717 187.106C207.748 187.327 207.698 187.557 207.648 187.788C206.852 182.713 195.857 178.6 182.462 178.588C169.055 178.501 158.039 182.481 157.187 187.598C157.156 187.377 157.125 187.156 157.094 186.935C157.152 181.46 168.442 177.075 182.428 177.168C196.474 177.105 207.775 181.631 207.717 187.106Z" fill="url(#paint108_radial_1_60)"/>
<path d="M182.369 195.004C171.781 194.964 163.198 191.544 163.28 187.415C163.278 186.816 163.45 186.272 163.713 185.792C165.638 182.422 173.311 179.955 182.415 180.019C191.518 180.082 199.142 182.564 201.022 185.941C201.349 186.502 201.503 187.008 201.504 187.607C201.585 191.717 192.958 195.044 182.369 195.004Z" fill="url(#paint109_radial_1_60)"/>
<path d="M182.375 193.28C172.03 193.212 163.713 189.911 163.723 185.865C163.713 185.792 163.713 185.792 163.702 185.718C165.627 182.348 173.3 179.881 182.404 179.945C191.507 180.008 199.132 182.49 201.011 185.867C201.022 185.94 201.022 185.94 201.032 186.014C201.113 190.124 192.719 193.348 182.375 193.28Z" fill="url(#paint110_radial_1_60)"/>
<path d="M220.096 191.059C219.204 192.362 218.037 193.471 216.686 194.452C215.336 195.434 213.873 196.203 212.4 196.899C209.362 198.227 206.109 199.205 202.907 199.952C199.624 200.709 196.309 201.245 192.963 201.559C189.628 201.948 186.241 201.968 182.864 202.062C176.09 202.102 169.376 201.386 162.812 199.978C159.565 199.233 156.288 198.266 153.294 196.967C150.29 195.594 147.337 193.991 145.327 191.454C147.408 193.908 150.361 195.511 153.355 196.81C156.43 198.1 159.615 199.002 162.862 199.747C169.426 201.155 176.12 201.724 182.813 201.693C186.189 201.599 189.495 201.589 192.841 201.274C196.186 200.959 199.501 200.424 202.795 199.74C206.078 198.983 209.26 198.089 212.298 196.761C213.781 196.139 215.244 195.369 216.605 194.462C217.945 193.407 219.204 192.362 220.096 191.059Z" fill="white"/>
<path d="M184.033 193.311C183.534 193.294 182.965 193.36 182.385 193.353C172.041 193.285 163.723 189.984 163.733 185.938L163.712 185.791C164.634 184.111 167.072 182.628 170.405 181.641C173.576 180.672 177.542 180.061 181.834 180.01C179.839 183.463 178.498 188.638 184.033 193.311Z" fill="url(#paint111_linear_1_60)"/>
<path d="M184.033 193.311C183.534 193.294 182.965 193.36 182.385 193.353C172.041 193.285 163.723 189.984 163.733 185.938L163.712 185.791C164.634 184.111 167.072 182.628 170.405 181.641C173.576 180.672 177.542 180.061 181.834 180.01C179.839 183.463 178.498 188.638 184.033 193.311Z" fill="url(#paint112_linear_1_60)"/>
<defs>
<filter id="filter0_f_1_60" x="8.35004" y="160.722" width="207.33" height="71.2778" filterUnits="userSpaceOnUse" color-interpolation-filters="sRGB">
<feFlood flood-opacity="0" result="BackgroundImageFix"/>
<feBlend mode="normal" in="SourceGraphic" in2="BackgroundImageFix" result="shape"/>
<feGaussianBlur stdDeviation="5.5" result="effect1_foregroundBlur_1_60"/>
</filter>
<radialGradient id="paint0_radial_1_60" cx="0" cy="0" r="1" gradientUnits="userSpaceOnUse" gradientTransform="translate(206.855 87.5937) rotate(-35.0983) scale(12.9079 12.6198)">
<stop offset="0.1873" stop-color="#9E2083"/>
<stop offset="0.8715" stop-color="#612680"/>
</radialGradient>
<linearGradient id="paint1_linear_1_60" x1="228.877" y1="77.397" x2="230.112" y2="76.3529" gradientUnits="userSpaceOnUse">
<stop stop-color="#D5D5D5"/>
<stop offset="0.29" stop-color="#A8A8A8"/>
<stop offset="1" stop-color="#919191"/>
</linearGradient>
<linearGradient id="paint2_linear_1_60" x1="218.73" y1="92.7025" x2="228.579" y2="84.3712" gradientUnits="userSpaceOnUse">
<stop stop-color="#D5D5D5"/>
<stop offset="0.29" stop-color="#A8A8A8"/>
<stop offset="1" stop-color="#919191"/>
</linearGradient>
<linearGradient id="paint3_linear_1_60" x1="200.261" y1="105.921" x2="208.789" y2="98.7069" gradientUnits="userSpaceOnUse">
<stop stop-color="#D5D5D5"/>
<stop offset="0.29" stop-color="#A8A8A8"/>
<stop offset="1" stop-color="#919191"/>
</linearGradient>
<radialGradient id="paint4_radial_1_60" cx="0" cy="0" r="1" gradientUnits="userSpaceOnUse" gradientTransform="translate(206.574 90.476) rotate(-35.0983) scale(21.0513 20.5814)">
<stop offset="0.1873" stop-color="#9E2083"/>
<stop offset="0.8715" stop-color="#662D91"/>
</radialGradient>
<radialGradient id="paint5_radial_1_60" cx="0" cy="0" r="1" gradientUnits="userSpaceOnUse" gradientTransform="translate(209.128 87.4451) rotate(-35.0983) scale(11.7071 11.4458)">
<stop offset="0.1873" stop-color="#9E2083"/>
<stop offset="0.8715" stop-color="#662D91"/>
</radialGradient>
<radialGradient id="paint6_radial_1_60" cx="0" cy="0" r="1" gradientUnits="userSpaceOnUse" gradientTransform="translate(207.348 85.3404) rotate(-35.0983) scale(11.0676 10.8206)">
<stop offset="0.1869" stop-color="#852985"/>
<stop offset="0.8715" stop-color="#4B2074"/>
</radialGradient>
<radialGradient id="paint7_radial_1_60" cx="0" cy="0" r="1" gradientUnits="userSpaceOnUse" gradientTransform="translate(209.355 87.6952) rotate(-35.0983) scale(8.86167 8.66388)">
<stop offset="0.1869" stop-color="#852985"/>
<stop offset="0.8715" stop-color="#4B2074"/>
</radialGradient>
<radialGradient id="paint8_radial_1_60" cx="0" cy="0" r="1" gradientUnits="userSpaceOnUse" gradientTransform="translate(204.08 91.6492) rotate(-35.0983) scale(21.6187 21.1362)">
<stop offset="0.1873" stop-color="#9E2083"/>
<stop offset="0.8715" stop-color="#662D91"/>
</radialGradient>
<linearGradient id="paint9_linear_1_60" x1="196.028" y1="97.6964" x2="205.754" y2="88.2998" gradientUnits="userSpaceOnUse">
<stop stop-color="#3DDEED"/>
<stop offset="1" stop-color="#3DDEED" stop-opacity="0"/>
</linearGradient>
<linearGradient id="paint10_linear_1_60" x1="196.74" y1="96.8441" x2="207.251" y2="86.9761" gradientUnits="userSpaceOnUse">
<stop stop-color="#BA9BC9"/>
<stop offset="1" stop-color="white" stop-opacity="0"/>
</linearGradient>
<linearGradient id="paint11_linear_1_60" x1="70.511" y1="118.692" x2="116.566" y2="183.454" gradientUnits="userSpaceOnUse">
<stop stop-color="#CE2E2E"/>
<stop offset="0.9949" stop-color="#AA1F1F"/>
</linearGradient>
<linearGradient id="paint12_linear_1_60" x1="158.782" y1="125.673" x2="159.228" y2="185.027" gradientUnits="userSpaceOnUse">
<stop stop-color="#CE2E2E"/>
<stop offset="0.9949" stop-color="#AA1F1F"/>
</linearGradient>
<linearGradient id="paint13_linear_1_60" x1="159.759" y1="179.171" x2="172.561" y2="170.121" gradientUnits="userSpaceOnUse">
<stop stop-color="#CE2E2E"/>
<stop offset="0.9949" stop-color="#AA1F1F"/>
</linearGradient>
<linearGradient id="paint14_linear_1_60" x1="147.945" y1="151.421" x2="192.065" y2="132.795" gradientUnits="userSpaceOnUse">
<stop stop-color="white" stop-opacity="0.2"/>
<stop offset="1" stop-color="white" stop-opacity="0"/>
</linearGradient>
<linearGradient id="paint15_linear_1_60" x1="158.401" y1="161.509" x2="176.74" y2="165.301" gradientUnits="userSpaceOnUse">
<stop stop-color="#CE2E2E"/>
<stop offset="0.9949" stop-color="#AA1F1F"/>
</linearGradient>
<linearGradient id="paint16_linear_1_60" x1="150.156" y1="139.213" x2="148.669" y2="178.37" gradientUnits="userSpaceOnUse">
<stop offset="0.00510204" stop-color="#FF4A4A"/>
<stop offset="1" stop-color="#E24747"/>
</linearGradient>
<linearGradient id="paint17_linear_1_60" x1="134.415" y1="147.942" x2="153.214" y2="147.942" gradientUnits="userSpaceOnUse">
<stop stop-color="#CE2E2E"/>
<stop offset="0.9949" stop-color="#AA1F1F"/>
</linearGradient>
<linearGradient id="paint18_linear_1_60" x1="93.0594" y1="133.034" x2="74.2607" y2="133.034" gradientUnits="userSpaceOnUse">
<stop stop-color="#CE2E2E"/>
<stop offset="0.9949" stop-color="#AA1F1F"/>
</linearGradient>
<linearGradient id="paint19_linear_1_60" x1="150.99" y1="164.025" x2="160.656" y2="157.926" gradientUnits="userSpaceOnUse">
<stop stop-color="#CE2E2E"/>
<stop offset="0.9949" stop-color="#AA1F1F"/>
</linearGradient>
<linearGradient id="paint20_linear_1_60" x1="89.6382" y1="173.964" x2="78.2077" y2="166.751" gradientUnits="userSpaceOnUse">
<stop stop-color="#CE2E2E"/>
<stop offset="0.9949" stop-color="#AA1F1F"/>
</linearGradient>
<linearGradient id="paint21_linear_1_60" x1="121.067" y1="159.767" x2="115.165" y2="150.358" gradientUnits="userSpaceOnUse">
<stop stop-color="#CE2E2E"/>
<stop offset="0.9949" stop-color="#AA1F1F"/>
</linearGradient>
<linearGradient id="paint22_linear_1_60" x1="123.917" y1="177.252" x2="112.486" y2="170.039" gradientUnits="userSpaceOnUse">
<stop stop-color="#CE2E2E"/>
<stop offset="0.9949" stop-color="#AA1F1F"/>
</linearGradient>
<linearGradient id="paint23_linear_1_60" x1="119.344" y1="143.602" x2="102.39" y2="132.904" gradientUnits="userSpaceOnUse">
<stop stop-color="#CE2E2E"/>
<stop offset="0.9949" stop-color="#AA1F1F"/>
</linearGradient>
<linearGradient id="paint24_linear_1_60" x1="106.858" y1="159.295" x2="88.3943" y2="155.066" gradientUnits="userSpaceOnUse">
<stop stop-color="#CE2E2E"/>
<stop offset="0.9949" stop-color="#AA1F1F"/>
</linearGradient>
<linearGradient id="paint25_linear_1_60" x1="162.129" y1="148.558" x2="171.795" y2="142.459" gradientUnits="userSpaceOnUse">
<stop stop-color="#CE2E2E"/>
<stop offset="0.9949" stop-color="#AA1F1F"/>
</linearGradient>
<linearGradient id="paint26_linear_1_60" x1="150.703" y1="131.897" x2="160.369" y2="125.798" gradientUnits="userSpaceOnUse">
<stop stop-color="#CE2E2E"/>
<stop offset="0.9949" stop-color="#AA1F1F"/>
</linearGradient>
<linearGradient id="paint27_linear_1_60" x1="146.656" y1="143.469" x2="146.805" y2="162.377" gradientUnits="userSpaceOnUse">
<stop stop-color="white" stop-opacity="0.2"/>
<stop offset="1" stop-color="white" stop-opacity="0"/>
</linearGradient>
<linearGradient id="paint28_linear_1_60" x1="129.352" y1="166.92" x2="139.52" y2="166.92" gradientUnits="userSpaceOnUse">
<stop stop-color="#CE2E2E"/>
<stop offset="0.9949" stop-color="#AA1F1F"/>
</linearGradient>
<linearGradient id="paint29_linear_1_60" x1="137.09" y1="178.356" x2="155.572" y2="178.356" gradientUnits="userSpaceOnUse">
<stop stop-color="#CE2E2E"/>
<stop offset="0.9949" stop-color="#AA1F1F"/>
</linearGradient>
<linearGradient id="paint30_linear_1_60" x1="112.034" y1="134.103" x2="175.794" y2="129.668" gradientUnits="userSpaceOnUse">
<stop offset="0.0969388" stop-color="white" stop-opacity="0.3964"/>
<stop offset="0.3367" stop-color="white" stop-opacity="0.6"/>
<stop offset="1" stop-color="white" stop-opacity="0.1"/>
</linearGradient>
<linearGradient id="paint31_linear_1_60" x1="170.571" y1="151.447" x2="161.74" y2="176.719" gradientUnits="userSpaceOnUse">
<stop offset="0.0969388" stop-color="white" stop-opacity="0.1"/>
<stop offset="0.5102" stop-color="white" stop-opacity="0.4"/>
<stop offset="0.9949" stop-color="white" stop-opacity="0.1"/>
</linearGradient>
<linearGradient id="paint32_linear_1_60" x1="145.607" y1="185.685" x2="157.386" y2="185.685" gradientUnits="userSpaceOnUse">
<stop stop-color="#CE2E2E"/>
<stop offset="0.9949" stop-color="#AA1F1F"/>
</linearGradient>
<linearGradient id="paint33_linear_1_60" x1="173.283" y1="133.472" x2="186.765" y2="133.472" gradientUnits="userSpaceOnUse">
<stop stop-color="#CE2E2E"/>
<stop offset="0.9949" stop-color="#AA1F1F"/>
</linearGradient>
<linearGradient id="paint34_linear_1_60" x1="180.111" y1="153.545" x2="186.552" y2="153.545" gradientUnits="userSpaceOnUse">
<stop stop-color="#CE2E2E"/>
<stop offset="0.9949" stop-color="#AA1F1F"/>
</linearGradient>
<linearGradient id="paint35_linear_1_60" x1="177.985" y1="175.781" x2="186.257" y2="175.781" gradientUnits="userSpaceOnUse">
<stop stop-color="#CE2E2E"/>
<stop offset="0.9949" stop-color="#AA1F1F"/>
</linearGradient>
<linearGradient id="paint36_linear_1_60" x1="71.1043" y1="152.984" x2="81.3899" y2="152.984" gradientUnits="userSpaceOnUse">
<stop stop-color="#CE2E2E"/>
<stop offset="0.9949" stop-color="#AA1F1F"/>
</linearGradient>
<linearGradient id="paint37_linear_1_60" x1="94.6825" y1="184.276" x2="106.962" y2="184.276" gradientUnits="userSpaceOnUse">
<stop stop-color="#CE2E2E"/>
<stop offset="0.9949" stop-color="#AA1F1F"/>
</linearGradient>
<linearGradient id="paint38_linear_1_60" x1="125.404" y1="164.873" x2="129.653" y2="164.873" gradientUnits="userSpaceOnUse">
<stop stop-color="#CE2E2E"/>
<stop offset="0.9949" stop-color="#AA1F1F"/>
</linearGradient>
<linearGradient id="paint39_linear_1_60" x1="131.719" y1="171.955" x2="130.346" y2="203.624" gradientUnits="userSpaceOnUse">
<stop offset="0.0969388" stop-color="white" stop-opacity="0.3964"/>
<stop offset="0.3367" stop-color="white" stop-opacity="0.6"/>
<stop offset="1" stop-color="white" stop-opacity="0.1"/>
</linearGradient>
<linearGradient id="paint40_linear_1_60" x1="85.1332" y1="117.379" x2="117.826" y2="114.297" gradientUnits="userSpaceOnUse">
<stop stop-color="#CE2E2E"/>
<stop offset="0.9949" stop-color="#AA1F1F"/>
</linearGradient>
<linearGradient id="paint41_linear_1_60" x1="117.224" y1="122.421" x2="149.917" y2="119.339" gradientUnits="userSpaceOnUse">
<stop stop-color="#CE2E2E"/>
<stop offset="0.9949" stop-color="#AA1F1F"/>
</linearGradient>
<linearGradient id="paint42_linear_1_60" x1="112.201" y1="111.245" x2="136.45" y2="108.958" gradientUnits="userSpaceOnUse">
<stop stop-color="#CE2E2E"/>
<stop offset="0.9949" stop-color="#AA1F1F"/>
</linearGradient>
<linearGradient id="paint43_linear_1_60" x1="146.723" y1="116.725" x2="170.971" y2="114.439" gradientUnits="userSpaceOnUse">
<stop stop-color="#CE2E2E"/>
<stop offset="0.9949" stop-color="#AA1F1F"/>
</linearGradient>
<linearGradient id="paint44_linear_1_60" x1="142.172" y1="110.19" x2="158.406" y2="108.659" gradientUnits="userSpaceOnUse">
<stop stop-color="#CE2E2E"/>
<stop offset="0.9949" stop-color="#AA1F1F"/>
</linearGradient>
<linearGradient id="paint45_linear_1_60" x1="128.4" y1="108.206" x2="110.324" y2="189.911" gradientUnits="userSpaceOnUse">
<stop offset="0.0561224" stop-color="#B42F1B"/>
<stop offset="0.1582" stop-color="#F17600"/>
<stop offset="0.2653" stop-color="#FFC82A"/>
<stop offset="0.3078" stop-color="#FABD29"/>
<stop offset="0.5397" stop-color="#E18821"/>
<stop offset="0.7407" stop-color="#CE611C"/>
<stop offset="0.9008" stop-color="#C34A18"/>
<stop offset="1" stop-color="#BF4117"/>
</linearGradient>
<linearGradient id="paint46_linear_1_60" x1="128.113" y1="108.294" x2="146.482" y2="191.326" gradientUnits="userSpaceOnUse">
<stop offset="0.0561224" stop-color="#B42F1B"/>
<stop offset="0.1582" stop-color="#F17600"/>
<stop offset="0.2857" stop-color="#FFE655"/>
<stop offset="0.602" stop-color="#FFAA00"/>
<stop offset="1" stop-color="#CC5712"/>
</linearGradient>
<linearGradient id="paint47_linear_1_60" x1="130.514" y1="102.804" x2="170.983" y2="67.4263" gradientUnits="userSpaceOnUse">
<stop offset="0.0561224" stop-color="#B42F1B"/>
<stop offset="0.3265" stop-color="#F17600"/>
<stop offset="0.648" stop-color="#F1AB26"/>
<stop offset="0.7376" stop-color="#E08821"/>
<stop offset="0.8517" stop-color="#CE611C"/>
<stop offset="0.9433" stop-color="#C34A18"/>
<stop offset="1" stop-color="#BF4117"/>
</linearGradient>
<linearGradient id="paint48_linear_1_60" x1="132.416" y1="106.406" x2="177.352" y2="77.5268" gradientUnits="userSpaceOnUse">
<stop offset="0.199" stop-color="#E96640"/>
<stop offset="0.5102" stop-color="#FFC82A"/>
<stop offset="0.5182" stop-color="#FFC92C"/>
<stop offset="0.6545" stop-color="#FFDE4A"/>
<stop offset="0.7317" stop-color="#FFE655"/>
<stop offset="0.8517" stop-color="#F3BF3F"/>
<stop offset="0.9801" stop-color="#D36A1E"/>
</linearGradient>
<linearGradient id="paint49_linear_1_60" x1="130.643" y1="88.2261" x2="169.373" y2="88.2261" gradientUnits="userSpaceOnUse">
<stop stop-color="#F17600"/>
<stop offset="0.3827" stop-color="#FFC82A"/>
<stop offset="0.3954" stop-color="#FFC92C"/>
<stop offset="0.612" stop-color="#FFDE4A"/>
<stop offset="0.7347" stop-color="#FFE655"/>
<stop offset="1" stop-color="#FFD394"/>
</linearGradient>
<linearGradient id="paint50_linear_1_60" x1="135.891" y1="111.838" x2="180.853" y2="82.9413" gradientUnits="userSpaceOnUse">
<stop offset="0.0969388" stop-color="white" stop-opacity="0.3964"/>
<stop offset="0.3367" stop-color="white" stop-opacity="0.6"/>
<stop offset="1" stop-color="white" stop-opacity="0.1"/>
</linearGradient>
<linearGradient id="paint51_linear_1_60" x1="84.4859" y1="86.6062" x2="119.204" y2="114.545" gradientUnits="userSpaceOnUse">
<stop offset="0.0561224" stop-color="#B42F1B"/>
<stop offset="0.3265" stop-color="#F17600"/>
<stop offset="0.648" stop-color="#F1AB26"/>
<stop offset="0.7376" stop-color="#E08821"/>
<stop offset="0.8517" stop-color="#CE611C"/>
<stop offset="0.9433" stop-color="#C34A18"/>
<stop offset="1" stop-color="#BF4117"/>
</linearGradient>
<linearGradient id="paint52_linear_1_60" x1="69.0135" y1="69.3701" x2="125.415" y2="110.325" gradientUnits="userSpaceOnUse">
<stop offset="0.1224" stop-color="#F8A116"/>
<stop offset="0.2755" stop-color="#D56F1F"/>
<stop offset="0.4206" stop-color="#EEA526"/>
<stop offset="0.5102" stop-color="#FFC82A"/>
<stop offset="0.5182" stop-color="#FFC92C"/>
<stop offset="0.6545" stop-color="#FFDE4A"/>
<stop offset="0.7317" stop-color="#FFE655"/>
<stop offset="0.8517" stop-color="#F3BF3F"/>
<stop offset="1" stop-color="#D36A1E"/>
</linearGradient>
<linearGradient id="paint53_linear_1_60" x1="74.6089" y1="61.7549" x2="130.951" y2="102.667" gradientUnits="userSpaceOnUse">
<stop offset="0.0969388" stop-color="white" stop-opacity="0.3964"/>
<stop offset="0.3367" stop-color="white" stop-opacity="0.6"/>
<stop offset="1" stop-color="white" stop-opacity="0.1"/>
</linearGradient>
<linearGradient id="paint54_linear_1_60" x1="80.9188" y1="97.3875" x2="122.486" y2="97.3875" gradientUnits="userSpaceOnUse">
<stop stop-color="#F17600"/>
<stop offset="0.3827" stop-color="#FFC82A"/>
<stop offset="0.3954" stop-color="#FFC92C"/>
<stop offset="0.612" stop-color="#FFDE4A"/>
<stop offset="0.7347" stop-color="#FFE655"/>
<stop offset="1" stop-color="#FFD394"/>
</linearGradient>
<linearGradient id="paint55_linear_1_60" x1="122.652" y1="107.043" x2="97.1493" y2="126.42" gradientUnits="userSpaceOnUse">
<stop offset="0.0561224" stop-color="#B42F1B"/>
<stop offset="0.3469" stop-color="#F17600"/>
<stop offset="0.7143" stop-color="#FFC82A"/>
<stop offset="0.7245" stop-color="#FFC92C"/>
<stop offset="0.8971" stop-color="#FFDE4A"/>
<stop offset="0.9949" stop-color="#FFE655"/>
</linearGradient>
<linearGradient id="paint56_linear_1_60" x1="121.656" y1="111.971" x2="103.884" y2="125.475" gradientUnits="userSpaceOnUse">
<stop stop-color="#F17600"/>
<stop offset="0.3827" stop-color="#FFC82A"/>
<stop offset="0.3954" stop-color="#FFC92C"/>
<stop offset="0.612" stop-color="#FFDE4A"/>
<stop offset="0.7347" stop-color="#FFE655"/>
<stop offset="1" stop-color="#FFD394"/>
</linearGradient>
<linearGradient id="paint57_linear_1_60" x1="130.752" y1="113.743" x2="159.889" y2="113.743" gradientUnits="userSpaceOnUse">
<stop offset="0.0561224" stop-color="#B42F1B"/>
<stop offset="0.3469" stop-color="#F17600"/>
<stop offset="0.7143" stop-color="#FFC82A"/>
<stop offset="0.7245" stop-color="#FFC92C"/>
<stop offset="0.8971" stop-color="#FFDE4A"/>
<stop offset="0.9949" stop-color="#FFE655"/>
</linearGradient>
<linearGradient id="paint58_linear_1_60" x1="137.784" y1="117.248" x2="156.979" y2="117.248" gradientUnits="userSpaceOnUse">
<stop stop-color="#F17600"/>
<stop offset="0.3827" stop-color="#FFC82A"/>
<stop offset="0.3954" stop-color="#FFC92C"/>
<stop offset="0.612" stop-color="#FFDE4A"/>
<stop offset="0.7347" stop-color="#FFE655"/>
<stop offset="1" stop-color="#FFD394"/>
</linearGradient>
<linearGradient id="paint59_linear_1_60" x1="127.044" y1="120.151" x2="131.653" y2="100.414" gradientUnits="userSpaceOnUse">
<stop stop-color="#F89D14"/>
<stop offset="0.0365837" stop-color="#E78117"/>
<stop offset="0.0853153" stop-color="#D46219"/>
<stop offset="0.1329" stop-color="#C64C1B"/>
<stop offset="0.1784" stop-color="#BE3F1D"/>
<stop offset="0.2194" stop-color="#BB3A1D"/>
<stop offset="0.263" stop-color="#C0401B"/>
<stop offset="0.322" stop-color="#CD5116"/>
<stop offset="0.3894" stop-color="#E36D0E"/>
<stop offset="0.4337" stop-color="#F48408"/>
<stop offset="0.6531" stop-color="#FFC82A"/>
<stop offset="0.6654" stop-color="#FFC92C"/>
<stop offset="0.8758" stop-color="#FFDE4A"/>
<stop offset="0.9949" stop-color="#FFE655"/>
</linearGradient>
<linearGradient id="paint60_linear_1_60" x1="131.525" y1="105.476" x2="129.811" y2="116.855" gradientUnits="userSpaceOnUse">
<stop offset="0.0969388" stop-color="white" stop-opacity="0.3964"/>
<stop offset="0.3367" stop-color="white" stop-opacity="0.6"/>
<stop offset="1" stop-color="white" stop-opacity="0.1"/>
</linearGradient>
<linearGradient id="paint61_linear_1_60" x1="152.094" y1="104.2" x2="169.696" y2="183.771" gradientUnits="userSpaceOnUse">
<stop offset="0.0969388" stop-color="white" stop-opacity="0.3964"/>
<stop offset="0.3367" stop-color="white" stop-opacity="0.6"/>
<stop offset="1" stop-color="white" stop-opacity="0.1"/>
</linearGradient>
<radialGradient id="paint62_radial_1_60" cx="0" cy="0" r="1" gradientUnits="userSpaceOnUse" gradientTransform="translate(130.761 25.2315) rotate(73.4689) scale(13.8353 14.9872)">
<stop offset="0.1748" stop-color="#0085C7"/>
<stop offset="0.7786" stop-color="#205C92"/>
</radialGradient>
<linearGradient id="paint63_linear_1_60" x1="132.943" y1="50.6211" x2="133.366" y2="52.307" gradientUnits="userSpaceOnUse">
<stop stop-color="#D5D5D5"/>
<stop offset="0.29" stop-color="#A8A8A8"/>
<stop offset="1" stop-color="#919191"/>
</linearGradient>
<linearGradient id="paint64_linear_1_60" x1="119.834" y1="34.3701" x2="123.214" y2="47.8214" gradientUnits="userSpaceOnUse">
<stop stop-color="#D5D5D5"/>
<stop offset="0.29" stop-color="#A8A8A8"/>
<stop offset="1" stop-color="#919191"/>
</linearGradient>
<linearGradient id="paint65_linear_1_60" x1="112.677" y1="11.0727" x2="115.603" y2="22.7198" gradientUnits="userSpaceOnUse">
<stop stop-color="#D5D5D5"/>
<stop offset="0.29" stop-color="#A8A8A8"/>
<stop offset="1" stop-color="#919191"/>
</linearGradient>
<radialGradient id="paint66_radial_1_60" cx="0" cy="0" r="1" gradientUnits="userSpaceOnUse" gradientTransform="translate(127.59 23.7257) rotate(73.4689) scale(22.5629 24.4414)">
<stop offset="0.1748" stop-color="#0085C7"/>
<stop offset="0.7786" stop-color="#205C92"/>
</radialGradient>
<radialGradient id="paint67_radial_1_60" cx="0" cy="0" r="1" gradientUnits="userSpaceOnUse" gradientTransform="translate(129.953 27.4629) rotate(73.4689) scale(12.5477 13.5924)">
<stop offset="0.1748" stop-color="#0085C7"/>
<stop offset="0.779" stop-color="#1B5184"/>
</radialGradient>
<radialGradient id="paint68_radial_1_60" cx="0" cy="0" r="1" gradientUnits="userSpaceOnUse" gradientTransform="translate(133.116 26.6686) rotate(73.4689) scale(11.8624 12.85)">
<stop offset="0.1748" stop-color="#0085C7"/>
<stop offset="0.7778" stop-color="#1B3D66"/>
</radialGradient>
<radialGradient id="paint69_radial_1_60" cx="0" cy="0" r="1" gradientUnits="userSpaceOnUse" gradientTransform="translate(129.569 27.5731) rotate(73.4689) scale(9.49796 10.2887)">
<stop offset="0.1748" stop-color="#0085C7"/>
<stop offset="0.7778" stop-color="#1B3D66"/>
</radialGradient>
<radialGradient id="paint70_radial_1_60" cx="0" cy="0" r="1" gradientUnits="userSpaceOnUse" gradientTransform="translate(127.322 20.8425) rotate(73.4689) scale(23.1709 25.1)">
<stop offset="0.1748" stop-color="#0085C7"/>
<stop offset="0.7786" stop-color="#205C92"/>
</radialGradient>
<linearGradient id="paint71_linear_1_60" x1="123.877" y1="10.5639" x2="128.306" y2="24.5494" gradientUnits="userSpaceOnUse">
<stop stop-color="#3DDEED"/>
<stop offset="1" stop-color="#3DDEED" stop-opacity="0"/>
</linearGradient>
<linearGradient id="paint72_linear_1_60" x1="124.544" y1="11.6096" x2="129.059" y2="26.5504" gradientUnits="userSpaceOnUse">
<stop stop-color="#3DDEED"/>
<stop offset="1" stop-color="#3DDEED" stop-opacity="0"/>
</linearGradient>
<radialGradient id="paint73_radial_1_60" cx="0" cy="0" r="1" gradientUnits="userSpaceOnUse" gradientTransform="translate(50.0626 184.907) rotate(48.4232) scale(24.8855 25.1423)">
<stop stop-color="white"/>
<stop offset="0.28" stop-color="#E5E5E5"/>
<stop offset="0.4639" stop-color="#D1D1D1"/>
<stop offset="0.6229" stop-color="#CACACA"/>
<stop offset="0.8639" stop-color="#B5B5B5"/>
<stop offset="1" stop-color="#A6A6A6"/>
</radialGradient>
<radialGradient id="paint74_radial_1_60" cx="0" cy="0" r="1" gradientUnits="userSpaceOnUse" gradientTransform="translate(79.3408 185.337) rotate(48.4232) scale(42.5842 43.0236)">
<stop stop-color="white"/>
<stop offset="0.28" stop-color="#E5E5E5"/>
<stop offset="0.4639" stop-color="#D1D1D1"/>
<stop offset="0.6229" stop-color="#CACACA"/>
<stop offset="0.8639" stop-color="#B5B5B5"/>
<stop offset="1" stop-color="#A6A6A6"/>
</radialGradient>
<radialGradient id="paint75_radial_1_60" cx="0" cy="0" r="1" gradientUnits="userSpaceOnUse" gradientTransform="translate(31.4613 151.305) rotate(48.4232) scale(30.1192 30.43)">
<stop stop-color="white"/>
<stop offset="0.28" stop-color="#E5E5E5"/>
<stop offset="0.4639" stop-color="#D1D1D1"/>
<stop offset="0.6229" stop-color="#CACACA"/>
<stop offset="0.8639" stop-color="#B5B5B5"/>
<stop offset="1" stop-color="#A6A6A6"/>
</radialGradient>
<radialGradient id="paint76_radial_1_60" cx="0" cy="0" r="1" gradientUnits="userSpaceOnUse" gradientTransform="translate(34.1782 170.006) rotate(48.4222) scale(31.4853 34.2639)">
<stop stop-color="white"/>
<stop offset="0.28" stop-color="#E5E5E5"/>
<stop offset="0.4639" stop-color="#D1D1D1"/>
<stop offset="0.6229" stop-color="#CACACA"/>
<stop offset="0.8639" stop-color="#B5B5B5"/>
<stop offset="1" stop-color="#A6A6A6"/>
</radialGradient>
<linearGradient id="paint77_linear_1_60" x1="68.1033" y1="178.965" x2="63.8566" y2="185.71" gradientUnits="userSpaceOnUse">
<stop offset="0.4639" stop-color="#222222"/>
<stop offset="0.5371" stop-color="#2A2A2A"/>
<stop offset="0.6484" stop-color="#3F3F3F"/>
<stop offset="0.784" stop-color="#616161"/>
<stop offset="0.9374" stop-color="#909090"/>
<stop offset="1" stop-color="#A6A6A6"/>
</linearGradient>
<linearGradient id="paint78_linear_1_60" x1="58.8582" y1="188.132" x2="56.3739" y2="192.117" gradientUnits="userSpaceOnUse">
<stop offset="0.4639" stop-color="#222222"/>
<stop offset="0.5371" stop-color="#2A2A2A"/>
<stop offset="0.6484" stop-color="#3F3F3F"/>
<stop offset="0.784" stop-color="#616161"/>
<stop offset="0.9374" stop-color="#909090"/>
<stop offset="1" stop-color="#A6A6A6"/>
</linearGradient>
<linearGradient id="paint79_linear_1_60" x1="51.0975" y1="194.167" x2="47.5181" y2="199.767" gradientUnits="userSpaceOnUse">
<stop offset="0.4639" stop-color="#222222"/>
<stop offset="0.5371" stop-color="#2A2A2A"/>
<stop offset="0.6484" stop-color="#3F3F3F"/>
<stop offset="0.784" stop-color="#616161"/>
<stop offset="0.9374" stop-color="#909090"/>
<stop offset="1" stop-color="#A6A6A6"/>
</linearGradient>
<linearGradient id="paint80_linear_1_60" x1="66.0938" y1="193.998" x2="62.6356" y2="199.175" gradientUnits="userSpaceOnUse">
<stop offset="0.4639" stop-color="#222222"/>
<stop offset="0.5371" stop-color="#2A2A2A"/>
<stop offset="0.6484" stop-color="#3F3F3F"/>
<stop offset="0.784" stop-color="#616161"/>
<stop offset="0.9374" stop-color="#909090"/>
<stop offset="1" stop-color="#A6A6A6"/>
</linearGradient>
<linearGradient id="paint81_linear_1_60" x1="52.9862" y1="179.821" x2="49.3855" y2="186.335" gradientUnits="userSpaceOnUse">
<stop offset="0.4639" stop-color="#222222"/>
<stop offset="0.5371" stop-color="#2A2A2A"/>
<stop offset="0.6484" stop-color="#3F3F3F"/>
<stop offset="0.784" stop-color="#616161"/>
<stop offset="0.9374" stop-color="#909090"/>
<stop offset="1" stop-color="#A6A6A6"/>
</linearGradient>
<linearGradient id="paint82_linear_1_60" x1="65.1358" y1="168.604" x2="58.3978" y2="169.078" gradientUnits="userSpaceOnUse">
<stop offset="0.4639" stop-color="#222222"/>
<stop offset="0.5371" stop-color="#2A2A2A"/>
<stop offset="0.6484" stop-color="#3F3F3F"/>
<stop offset="0.784" stop-color="#616161"/>
<stop offset="0.9374" stop-color="#909090"/>
<stop offset="1" stop-color="#A6A6A6"/>
</linearGradient>
<linearGradient id="paint83_linear_1_60" x1="35.5726" y1="177.277" x2="35.6849" y2="182.676" gradientUnits="userSpaceOnUse">
<stop offset="0.4639" stop-color="#222222"/>
<stop offset="0.5371" stop-color="#2A2A2A"/>
<stop offset="0.6484" stop-color="#3F3F3F"/>
<stop offset="0.784" stop-color="#616161"/>
<stop offset="0.9374" stop-color="#909090"/>
<stop offset="1" stop-color="#A6A6A6"/>
</linearGradient>
<linearGradient id="paint84_linear_1_60" x1="57.3428" y1="169.285" x2="50.6064" y2="169.759" gradientUnits="userSpaceOnUse">
<stop offset="0.4639" stop-color="#222222"/>
<stop offset="0.5371" stop-color="#2A2A2A"/>
<stop offset="0.6484" stop-color="#3F3F3F"/>
<stop offset="0.784" stop-color="#616161"/>
<stop offset="0.9374" stop-color="#909090"/>
<stop offset="1" stop-color="#A6A6A6"/>
</linearGradient>
<linearGradient id="paint85_linear_1_60" x1="50.1108" y1="169.627" x2="43.3738" y2="170.101" gradientUnits="userSpaceOnUse">
<stop offset="0.4639" stop-color="#222222"/>
<stop offset="0.5371" stop-color="#2A2A2A"/>
<stop offset="0.6484" stop-color="#3F3F3F"/>
<stop offset="0.784" stop-color="#616161"/>
<stop offset="0.9374" stop-color="#909090"/>
<stop offset="1" stop-color="#A6A6A6"/>
</linearGradient>
<linearGradient id="paint86_linear_1_60" x1="43.2332" y1="165.255" x2="36.5781" y2="166.028" gradientUnits="userSpaceOnUse">
<stop offset="0.4639" stop-color="#222222"/>
<stop offset="0.5371" stop-color="#2A2A2A"/>
<stop offset="0.6484" stop-color="#3F3F3F"/>
<stop offset="0.784" stop-color="#616161"/>
<stop offset="0.9374" stop-color="#909090"/>
<stop offset="1" stop-color="#A6A6A6"/>
</linearGradient>
<linearGradient id="paint87_linear_1_60" x1="50.756" y1="164.999" x2="44.1013" y2="165.773" gradientUnits="userSpaceOnUse">
<stop offset="0.4639" stop-color="#222222"/>
<stop offset="0.5371" stop-color="#2A2A2A"/>
<stop offset="0.6484" stop-color="#3F3F3F"/>
<stop offset="0.784" stop-color="#616161"/>
<stop offset="0.9374" stop-color="#909090"/>
<stop offset="1" stop-color="#A6A6A6"/>
</linearGradient>
<linearGradient id="paint88_linear_1_60" x1="57.9019" y1="164.586" x2="51.2469" y2="165.359" gradientUnits="userSpaceOnUse">
<stop offset="0.4639" stop-color="#222222"/>
<stop offset="0.5371" stop-color="#2A2A2A"/>
<stop offset="0.6484" stop-color="#3F3F3F"/>
<stop offset="0.784" stop-color="#616161"/>
<stop offset="0.9374" stop-color="#909090"/>
<stop offset="1" stop-color="#A6A6A6"/>
</linearGradient>
<linearGradient id="paint89_linear_1_60" x1="34.5458" y1="191.572" x2="34.6582" y2="196.971" gradientUnits="userSpaceOnUse">
<stop offset="0.4639" stop-color="#222222"/>
<stop offset="0.5371" stop-color="#2A2A2A"/>
<stop offset="0.6484" stop-color="#3F3F3F"/>
<stop offset="0.784" stop-color="#616161"/>
<stop offset="0.9374" stop-color="#909090"/>
<stop offset="1" stop-color="#A6A6A6"/>
</linearGradient>
<linearGradient id="paint90_linear_1_60" x1="28.3131" y1="186.665" x2="28.4242" y2="191.301" gradientUnits="userSpaceOnUse">
<stop offset="0.4639" stop-color="#222222"/>
<stop offset="0.5371" stop-color="#2A2A2A"/>
<stop offset="0.6484" stop-color="#3F3F3F"/>
<stop offset="0.784" stop-color="#616161"/>
<stop offset="0.9374" stop-color="#909090"/>
<stop offset="1" stop-color="#A6A6A6"/>
</linearGradient>
<linearGradient id="paint91_linear_1_60" x1="29.0779" y1="173.147" x2="29.1891" y2="177.783" gradientUnits="userSpaceOnUse">
<stop offset="0.4639" stop-color="#222222"/>
<stop offset="0.5371" stop-color="#2A2A2A"/>
<stop offset="0.6484" stop-color="#3F3F3F"/>
<stop offset="0.784" stop-color="#616161"/>
<stop offset="0.9374" stop-color="#909090"/>
<stop offset="1" stop-color="#A6A6A6"/>
</linearGradient>
<radialGradient id="paint92_radial_1_60" cx="0" cy="0" r="1" gradientUnits="userSpaceOnUse" gradientTransform="translate(65.4783 148.363) rotate(48.7966) scale(24.145 24.4276)">
<stop stop-color="white"/>
<stop offset="0.28" stop-color="#E5E5E5"/>
<stop offset="0.4639" stop-color="#D1D1D1"/>
<stop offset="0.6229" stop-color="#CACACA"/>
<stop offset="0.8639" stop-color="#B5B5B5"/>
<stop offset="1" stop-color="#A6A6A6"/>
</radialGradient>
<radialGradient id="paint93_radial_1_60" cx="0" cy="0" r="1" gradientUnits="userSpaceOnUse" gradientTransform="translate(92.162 150.237) rotate(48.7966) scale(39.0592 39.5163)">
<stop stop-color="white"/>
<stop offset="0.28" stop-color="#E5E5E5"/>
<stop offset="0.4639" stop-color="#D1D1D1"/>
<stop offset="0.6229" stop-color="#CACACA"/>
<stop offset="0.8639" stop-color="#B5B5B5"/>
<stop offset="1" stop-color="#A6A6A6"/>
</radialGradient>
<radialGradient id="paint94_radial_1_60" cx="0" cy="0" r="1" gradientUnits="userSpaceOnUse" gradientTransform="translate(44.8688 118.228) rotate(48.7966) scale(27.3123 27.6319)">
<stop stop-color="white"/>
<stop offset="0.28" stop-color="#E5E5E5"/>
<stop offset="0.4639" stop-color="#D1D1D1"/>
<stop offset="0.6229" stop-color="#CACACA"/>
<stop offset="0.8639" stop-color="#B5B5B5"/>
<stop offset="1" stop-color="#A6A6A6"/>
</radialGradient>
<radialGradient id="paint95_radial_1_60" cx="0" cy="0" r="1" gradientUnits="userSpaceOnUse" gradientTransform="translate(49.2554 134.526) rotate(48.7966) scale(34.1937 34.5939)">
<stop stop-color="white"/>
<stop offset="0.28" stop-color="#E5E5E5"/>
<stop offset="0.4639" stop-color="#D1D1D1"/>
<stop offset="0.6229" stop-color="#CACACA"/>
<stop offset="0.8639" stop-color="#B5B5B5"/>
<stop offset="1" stop-color="#A6A6A6"/>
</radialGradient>
<linearGradient id="paint96_linear_1_60" x1="82.5081" y1="145.943" x2="76.4289" y2="151.77" gradientUnits="userSpaceOnUse">
<stop offset="0.4639" stop-color="#222222"/>
<stop offset="0.5371" stop-color="#2A2A2A"/>
<stop offset="0.6484" stop-color="#3F3F3F"/>
<stop offset="0.784" stop-color="#616161"/>
<stop offset="0.9374" stop-color="#909090"/>
<stop offset="1" stop-color="#A6A6A6"/>
</linearGradient>
<linearGradient id="paint97_linear_1_60" x1="68.8141" y1="132.319" x2="64.1806" y2="135.1" gradientUnits="userSpaceOnUse">
<stop offset="0.4639" stop-color="#222222"/>
<stop offset="0.5371" stop-color="#2A2A2A"/>
<stop offset="0.6484" stop-color="#3F3F3F"/>
<stop offset="0.784" stop-color="#616161"/>
<stop offset="0.9374" stop-color="#909090"/>
<stop offset="1" stop-color="#A6A6A6"/>
</linearGradient>
<linearGradient id="paint98_linear_1_60" x1="45.3581" y1="138.8" x2="45.1049" y2="144.912" gradientUnits="userSpaceOnUse">
<stop offset="0.4639" stop-color="#222222"/>
<stop offset="0.5371" stop-color="#2A2A2A"/>
<stop offset="0.6484" stop-color="#3F3F3F"/>
<stop offset="0.784" stop-color="#616161"/>
<stop offset="0.9374" stop-color="#909090"/>
<stop offset="1" stop-color="#A6A6A6"/>
</linearGradient>
<linearGradient id="paint99_linear_1_60" x1="49.3555" y1="156.498" x2="49.6574" y2="163.123" gradientUnits="userSpaceOnUse">
<stop offset="0.4639" stop-color="#222222"/>
<stop offset="0.5371" stop-color="#2A2A2A"/>
<stop offset="0.6484" stop-color="#3F3F3F"/>
<stop offset="0.784" stop-color="#616161"/>
<stop offset="0.9374" stop-color="#909090"/>
<stop offset="1" stop-color="#A6A6A6"/>
</linearGradient>
<linearGradient id="paint100_linear_1_60" x1="74.8427" y1="152.786" x2="68.7655" y2="158.611" gradientUnits="userSpaceOnUse">
<stop offset="0.4639" stop-color="#222222"/>
<stop offset="0.5371" stop-color="#2A2A2A"/>
<stop offset="0.6484" stop-color="#3F3F3F"/>
<stop offset="0.784" stop-color="#616161"/>
<stop offset="0.9374" stop-color="#909090"/>
<stop offset="1" stop-color="#A6A6A6"/>
</linearGradient>
<linearGradient id="paint101_linear_1_60" x1="67.167" y1="159.862" x2="61.0913" y2="165.686" gradientUnits="userSpaceOnUse">
<stop offset="0.4639" stop-color="#222222"/>
<stop offset="0.5371" stop-color="#2A2A2A"/>
<stop offset="0.6484" stop-color="#3F3F3F"/>
<stop offset="0.784" stop-color="#616161"/>
<stop offset="0.9374" stop-color="#909090"/>
<stop offset="1" stop-color="#A6A6A6"/>
</linearGradient>
<radialGradient id="paint102_radial_1_60" cx="0" cy="0" r="1" gradientUnits="userSpaceOnUse" gradientTransform="translate(179.486 185.055) rotate(2.08361) scale(21.4819 19.4717)">
<stop offset="0.1873" stop-color="#8CC63F"/>
<stop offset="0.8711" stop-color="#005D32"/>
</radialGradient>
<linearGradient id="paint103_linear_1_60" x1="218.251" y1="193.138" x2="220.95" y2="193.262" gradientUnits="userSpaceOnUse">
<stop stop-color="#D5D5D5"/>
<stop offset="0.29" stop-color="#A8A8A8"/>
<stop offset="1" stop-color="#919191"/>
</linearGradient>
<linearGradient id="paint104_linear_1_60" x1="188.339" y1="202.375" x2="209.87" y2="203.36" gradientUnits="userSpaceOnUse">
<stop stop-color="#D5D5D5"/>
<stop offset="0.29" stop-color="#A8A8A8"/>
<stop offset="1" stop-color="#919191"/>
</linearGradient>
<linearGradient id="paint105_linear_1_60" x1="150.524" y1="201.302" x2="169.168" y2="202.155" gradientUnits="userSpaceOnUse">
<stop stop-color="#D5D5D5"/>
<stop offset="0.29" stop-color="#A8A8A8"/>
<stop offset="1" stop-color="#919191"/>
</linearGradient>
<radialGradient id="paint106_radial_1_60" cx="0" cy="0" r="1" gradientUnits="userSpaceOnUse" gradientTransform="translate(175.864 188.316) rotate(2.08361) scale(35.0346 31.7561)">
<stop offset="0.1873" stop-color="#8CC63F"/>
<stop offset="0.8715" stop-color="#006837"/>
</radialGradient>
<radialGradient id="paint107_radial_1_60" cx="0" cy="0" r="1" gradientUnits="userSpaceOnUse" gradientTransform="translate(182.46 186.994) rotate(2.08362) scale(19.4834 17.6602)">
<stop offset="0.1873" stop-color="#8CC63F"/>
<stop offset="0.8715" stop-color="#006837"/>
</radialGradient>
<radialGradient id="paint108_radial_1_60" cx="0" cy="0" r="1" gradientUnits="userSpaceOnUse" gradientTransform="translate(182.654 182.762) rotate(2.08362) scale(18.4192 16.6956)">
<stop offset="0.1869" stop-color="#478D43"/>
<stop offset="0.8711" stop-color="#134D2D"/>
</radialGradient>
<radialGradient id="paint109_radial_1_60" cx="0" cy="0" r="1" gradientUnits="userSpaceOnUse" gradientTransform="translate(182.456 187.515) rotate(2.08361) scale(14.7481 13.368)">
<stop offset="0.1869" stop-color="#478D43"/>
<stop offset="0.8711" stop-color="#134D2D"/>
</radialGradient>
<radialGradient id="paint110_radial_1_60" cx="0" cy="0" r="1" gradientUnits="userSpaceOnUse" gradientTransform="translate(171.453 187.423) rotate(2.08362) scale(35.9787 32.6119)">
<stop offset="0.1873" stop-color="#8CC63F"/>
<stop offset="0.8715" stop-color="#006837"/>
</radialGradient>
<linearGradient id="paint111_linear_1_60" x1="154.644" y1="187.302" x2="177.373" y2="186.699" gradientUnits="userSpaceOnUse">
<stop stop-color="#3DDEED"/>
<stop offset="1" stop-color="#3DDEED" stop-opacity="0"/>
</linearGradient>
<linearGradient id="paint112_linear_1_60" x1="156.491" y1="186.925" x2="180.698" y2="186.664" gradientUnits="userSpaceOnUse">
<stop stop-color="#D9E021"/>
<stop offset="1" stop-color="white" stop-opacity="0"/>
</linearGradient>
<clipPath id="clip0_1_60">
<rect width="116.361" height="128.276" fill="white" transform="translate(70.7559 66.4438)"/>
</clipPath>
</defs>
</svg>
