<svg width="200" height="40" fill="none" xmlns="http://www.w3.org/2000/svg"><path d="M62.197 1.358h3.283L51.542 17.504H48.24L62.197 1.358zm-5.348 16.126c-1.79 0-3.366-.338-4.728-1.012-1.35-.674-2.402-1.61-3.16-2.808-.756-1.211-1.135-2.622-1.135-4.233 0-1.61.379-3.014 1.136-4.212.757-1.211 1.81-2.154 3.159-2.829 1.362-.674 2.938-1.011 4.728-1.011 1.321 0 2.533.192 3.634.578 1.101.385 2.051.936 2.85 1.651a7.155 7.155 0 0 1 1.878 2.54c.455.977.682 2.072.682 3.283 0 1.61-.379 3.022-1.136 4.233-.757 1.197-1.817 2.134-3.18 2.808-1.349.674-2.925 1.012-4.728 1.012zm0-3.015c1.143 0 2.127-.2 2.953-.599a4.563 4.563 0 0 0 1.92-1.755c.468-.757.702-1.652.702-2.684 0-1.032-.234-1.927-.702-2.684a4.433 4.433 0 0 0-1.92-1.734c-.826-.413-1.81-.62-2.953-.62-1.129 0-2.106.207-2.932.62-.826.399-1.466.977-1.92 1.734-.455.757-.682 1.652-.682 2.684 0 1.033.227 1.927.682 2.684a4.562 4.562 0 0 0 1.92 1.755c.826.4 1.803.6 2.932.6zm14.093 6.422c-.77 0-1.466-.097-2.085-.29a6.658 6.658 0 0 1-1.755-.846v-2.478c.578.372 1.128.64 1.651.806a5.739 5.739 0 0 0 1.735.247c.564 0 1.067-.13 1.507-.392.44-.248.805-.695 1.094-1.342l4.894-11.17h3.655L75.774 17.71c-.358.77-.792 1.39-1.301 1.858a4.704 4.704 0 0 1-1.673 1.012 5.603 5.603 0 0 1-1.858.31zm.743-4.46L66.503 5.425h3.799l4.749 11.006h-3.366zm17.32 1.053c-1.39 0-2.635-.255-3.737-.764-1.087-.523-1.947-1.253-2.58-2.189-.62-.936-.93-2.023-.93-3.262 0-1.225.296-2.299.888-3.221.606-.923 1.432-1.638 2.478-2.148 1.046-.523 2.237-.784 3.572-.784 1.363 0 2.533.303 3.51.908.977.592 1.728 1.432 2.25 2.52.537 1.087.806 2.367.806 3.84H84.525v-2.292h8.879l-1.343.826c-.055-.688-.227-1.273-.516-1.755a2.854 2.854 0 0 0-1.135-1.115c-.482-.262-1.046-.393-1.693-.393-.703 0-1.315.145-1.838.434-.51.275-.909.668-1.198 1.177-.275.496-.413 1.08-.413 1.755 0 .812.18 1.507.537 2.085.358.579.881 1.02 1.57 1.322.688.303 1.52.454 2.498.454.88 0 1.769-.124 2.663-.371a8.996 8.996 0 0 0 2.416-1.095v2.313c-.77.55-1.672.984-2.705 1.3-1.018.303-2.099.455-3.241.455zM97.28 1.275h3.448v7.888l-.475.929v2.56l.475.95v3.572h-3.448V1.275zm2.23 10.035c.22-1.253.626-2.34 1.218-3.262.592-.936 1.328-1.659 2.209-2.168.881-.51 1.872-.764 2.974-.764 1.142 0 2.154.261 3.035.784.881.51 1.569 1.232 2.065 2.168.495.923.743 2.003.743 3.242 0 1.225-.248 2.306-.743 3.242a5.496 5.496 0 0 1-2.065 2.168c-.881.51-1.893.764-3.035.764-1.102 0-2.093-.255-2.974-.764-.881-.51-1.617-1.225-2.209-2.147-.578-.937-.984-2.024-1.218-3.263zm8.734 0c0-.688-.145-1.294-.434-1.817a2.962 2.962 0 0 0-1.156-1.239c-.496-.303-1.06-.454-1.693-.454-.647 0-1.26.151-1.838.454a4.678 4.678 0 0 0-1.528 1.24 6.132 6.132 0 0 0-1.012 1.816 6.132 6.132 0 0 0 1.012 1.817c.441.523.95.936 1.528 1.239a4.057 4.057 0 0 0 1.838.434c.633 0 1.197-.145 1.693-.434a3.135 3.135 0 0 0 1.156-1.239c.289-.523.434-1.129.434-1.817zm5.53-10.035h3.448v15.9h-3.448v-15.9zm6.049 4.027l1.714.33 1.734-.33v11.872h-3.448V5.302zm1.714-1.219c-.62 0-1.129-.158-1.528-.475-.386-.33-.578-.763-.578-1.3 0-.55.192-.985.578-1.301.399-.33.908-.496 1.528-.496.633 0 1.142.165 1.528.496.385.316.578.75.578 1.3 0 .538-.193.971-.578 1.301-.386.317-.895.475-1.528.475zm7.783 10.242l-.97-.351 6.979-8.549h3.758l-10.076 11.75h-3.139v-15.9h3.448v13.05zm2.664-2.912l2.54-1.961 4.893 7.722h-3.944l-3.489-5.76zm12.076 2.912l-.97-.351 6.979-8.549h3.757l-10.076 11.75h-3.138v-15.9h3.448v13.05zm2.664-2.912l2.539-1.961 4.894 7.722h-3.944l-3.489-5.76zm14.59 6.07c-1.39 0-2.636-.254-3.737-.763-1.088-.523-1.948-1.253-2.581-2.189-.619-.936-.929-2.023-.929-3.262 0-1.225.296-2.299.888-3.221.605-.923 1.431-1.638 2.477-2.148 1.047-.523 2.237-.784 3.572-.784 1.363 0 2.533.303 3.511.908.977.592 1.727 1.432 2.25 2.52.537 1.087.805 2.367.805 3.84h-10.736v-2.292h8.878l-1.342.826c-.055-.688-.227-1.273-.516-1.755a2.851 2.851 0 0 0-1.136-1.115c-.482-.262-1.046-.393-1.693-.393-.702 0-1.314.145-1.838.434a2.985 2.985 0 0 0-1.197 1.177c-.275.496-.413 1.08-.413 1.755 0 .812.179 1.507.537 2.085.358.579.881 1.02 1.569 1.322.688.303 1.521.454 2.498.454.881 0 1.769-.124 2.664-.371a8.996 8.996 0 0 0 2.416-1.095v2.313c-.771.55-1.673.984-2.705 1.3a11.319 11.319 0 0 1-3.242.455zm8.273-16.208h3.448v15.9h-3.448v-15.9zm6.049 4.027l1.714.33 1.735-.33v11.872h-3.449V5.302zm1.714-1.219c-.619 0-1.129-.158-1.528-.475-.385-.33-.578-.763-.578-1.3 0-.55.193-.985.578-1.301.399-.33.909-.496 1.528-.496.633 0 1.143.165 1.528.496.386.316.578.75.578 1.3 0 .538-.192.971-.578 1.301-.385.317-.895.475-1.528.475zm14.783 10.18v-2.044l.124-.434v-2.56l-.124-.434V5.425h3.449v8.61c0 1.487-.331 2.74-.992 3.759-.646 1.018-1.548 1.789-2.704 2.312-1.157.523-2.499.785-4.027.785-1.073 0-2.064-.138-2.973-.413a10.51 10.51 0 0 1-2.643-1.26v-2.705c.84.647 1.714 1.108 2.622 1.384a9.706 9.706 0 0 0 2.788.413c1.445 0 2.553-.337 3.324-1.012.771-.674 1.156-1.686 1.156-3.035zm-5.347 1.837c-1.088 0-2.065-.227-2.932-.681a5.125 5.125 0 0 1-2.024-1.92c-.495-.826-.743-1.79-.743-2.89 0-1.102.248-2.059.743-2.871a5.125 5.125 0 0 1 2.024-1.92c.867-.468 1.844-.702 2.932-.702.826 0 1.576.13 2.25.392a6.735 6.735 0 0 1 1.838.991c.55.413 1.012.867 1.383 1.363.372.482.654.97.847 1.466.206.482.31.922.31 1.321 0 .51-.159 1.08-.475 1.714-.303.633-.744 1.232-1.322 1.796a7.297 7.297 0 0 1-2.085 1.404c-.812.358-1.728.537-2.746.537zm1.135-2.436c.895 0 1.7-.24 2.416-.723.73-.495 1.37-1.273 1.92-2.333-.55-1.074-1.19-1.851-1.92-2.333a4.208 4.208 0 0 0-2.416-.743c-.702 0-1.307.13-1.817.392a2.725 2.725 0 0 0-1.156 1.074c-.262.454-.392.99-.392 1.61 0 .606.13 1.143.392 1.61.262.455.647.813 1.156 1.074.51.248 1.115.372 1.817.372zM51.749 33.324l-.97-.35 6.978-8.548h3.758L51.44 36.173h-3.138V20.275h3.448v13.05zm2.664-2.91l2.54-1.962 4.893 7.722h-3.944l-3.49-5.76zm18.82 5.76l-.495-4.295.557-1.569-.557-1.548.496-4.337h3.572l-.682 5.885.681 5.864h-3.572zm.909-5.864c-.22 1.239-.626 2.326-1.218 3.262-.578.923-1.315 1.639-2.21 2.148-.88.51-1.872.764-2.973.764-1.142 0-2.154-.255-3.035-.764a5.493 5.493 0 0 1-2.065-2.168c-.482-.936-.722-2.017-.722-3.242 0-1.239.24-2.32.722-3.242.496-.936 1.184-1.658 2.065-2.168.88-.523 1.893-.784 3.035-.784 1.101 0 2.093.254 2.974.764.894.51 1.638 1.232 2.23 2.168.591.922.99 2.01 1.197 3.262zm-8.734 0c0 .688.138 1.294.413 1.817.289.523.681.936 1.177 1.239.495.289 1.067.434 1.714.434a3.93 3.93 0 0 0 1.817-.434 5.052 5.052 0 0 0 1.528-1.239 5.888 5.888 0 0 0 1.032-1.817 5.888 5.888 0 0 0-1.032-1.817c-.44-.537-.95-.95-1.528-1.239a3.785 3.785 0 0 0-1.817-.454c-.647 0-1.219.151-1.714.454-.496.29-.888.702-1.177 1.24-.275.522-.413 1.128-.413 1.816zm26.547 2.168c0 .84-.248 1.563-.744 2.168-.481.606-1.204 1.067-2.168 1.383-.963.303-2.14.455-3.53.455-1.432 0-2.678-.172-3.738-.516-1.06-.358-1.886-.86-2.478-1.508a3.496 3.496 0 0 1-.95-2.25h3.51c.083.385.29.722.62 1.011.33.276.757.49 1.28.64.537.152 1.157.228 1.859.228.977 0 1.713-.11 2.209-.33.51-.221.764-.551.764-.992 0-.316-.179-.557-.537-.723-.344-.165-.984-.289-1.92-.371l-2.189-.165c-1.308-.11-2.347-.33-3.118-.661-.77-.33-1.321-.743-1.651-1.239a3.107 3.107 0 0 1-.475-1.672c0-.84.261-1.542.784-2.107.523-.564 1.253-.99 2.189-1.28.95-.289 2.044-.433 3.283-.433 1.266 0 2.395.172 3.386.516.991.344 1.783.819 2.375 1.425.605.605.95 1.307 1.032 2.106h-3.51c-.055-.29-.213-.558-.475-.805-.248-.262-.613-.475-1.094-.64-.482-.166-1.108-.248-1.88-.248-.866 0-1.534.103-2.002.31-.468.192-.702.488-.702.887 0 .275.145.503.434.682.289.165.825.282 1.61.35l2.85.228c1.266.11 2.264.323 2.993.64.73.303 1.24.702 1.528 1.197.303.496.455 1.067.455 1.714zm1.977-8.176l1.713.33 1.735-.33v11.872h-3.448V24.302zm1.713-1.219c-.62 0-1.128-.158-1.528-.474-.385-.33-.578-.765-.578-1.301 0-.55.193-.985.578-1.301.4-.33.909-.496 1.528-.496.633 0 1.143.166 1.528.496.386.316.578.75.578 1.3 0 .538-.192.971-.578 1.302-.385.316-.895.474-1.528.474zm3.778 1.343h3.448l.744 4.48v7.268h-3.448V28.39l-.744-3.965zm8.672-.31c1.115 0 2.065.227 2.85.681a4.363 4.363 0 0 1 1.796 1.9c.413.826.619 1.81.619 2.952v6.525h-3.448v-6.008c0-1.06-.254-1.859-.764-2.396-.509-.55-1.252-.825-2.23-.825-.66 0-1.245.15-1.755.454a2.991 2.991 0 0 0-1.156 1.218c-.261.523-.392 1.15-.392 1.879l-1.136-.599c.138-1.239.468-2.285.991-3.138.523-.854 1.184-1.508 1.982-1.962a5.255 5.255 0 0 1 2.643-.681zm14.425 12.368c-1.459 0-2.739-.255-3.84-.764-1.101-.523-1.962-1.246-2.581-2.168-.62-.936-.929-2.017-.929-3.242 0-1.239.309-2.32.929-3.242.619-.936 1.48-1.658 2.581-2.168 1.101-.523 2.381-.784 3.84-.784s2.74.261 3.841.784c1.101.51 1.955 1.232 2.56 2.168.62.923.929 2.003.929 3.242 0 1.225-.309 2.306-.929 3.242-.605.922-1.459 1.645-2.56 2.168-1.101.51-2.382.764-3.841.764zm0-2.623c.799 0 1.48-.144 2.044-.433a3.066 3.066 0 0 0 1.322-1.218c.317-.537.475-1.17.475-1.9 0-.743-.158-1.376-.475-1.9a3.03 3.03 0 0 0-1.322-1.238c-.564-.29-1.245-.434-2.044-.434-.784 0-1.466.145-2.044.434a3.164 3.164 0 0 0-1.342 1.238c-.303.524-.454 1.157-.454 1.9 0 .73.151 1.363.454 1.9.317.523.764.929 1.342 1.218.578.289 1.26.434 2.044.434zM28.951 9.468C23.188 4.792 16.681 2 11.543 2c-2.36 0-4.31.607-5.738 1.753l-.079-.02-.296.333a6.535 6.535 0 0 0-.637.679c-.086.106-.163.22-.242.33a84.862 84.862 0 0 0-2 2.43C1.33 9.014.814 11.05 1.059 13.395c.553 5.286 4.82 11.746 11.137 16.86 5.758 4.662 12.262 7.445 17.398 7.445 2.984 0 5.323-.953 6.764-2.758.537-.673 1.14-1.441 1.604-2.034.239-.22.466-.453.67-.707 4.059-5.05-.194-15.034-9.68-22.732z" fill="#17B18D"/><path d="M35.973 33.08c-3.62 4.479-13.531 2.371-22.237-4.636C5.03 21.436.94 12.058 4.506 7.579 5.922 5.84 7.233 4.365 7.233 4.365s14.265 3.583 19.51 7.85c6.188 5.058 11.59 17.86 11.59 17.86s-1.364 1.688-2.36 3.005z" fill="#401C8D"/><path d="M6.738 4.849c3.586-4.46 13.525-2.369 22.2 4.67 8.676 7.039 12.802 16.36 9.218 20.82-3.585 4.46-13.525 2.369-22.2-4.67C7.28 18.63 3.153 9.31 6.738 4.85z" fill="#6C38DB"/><path d="M10.01 2.733c1.94 1.58 28.215 28.873 28.215 28.873s1.311-2.266 1.469-3.636c.157-1.37-.367-4.057-.84-5.48-.471-1.423-1.678-4.057-2.202-4.741-.578-.686-11.643-.79-11.643-.79s-2.57-9.8-3.146-12.066c-4.983-2.475-9.283-2.74-11.853-2.16z" fill="#17B18D"/><path d="M7.757 16.54h17.517l-3.829 12.645-2.36 4.004s-11.327-6.797-13.53-13.91c1.258-1.58 2.202-2.74 2.202-2.74z" fill="#17B18D"/><path d="M10.332 7.297c2.676-3.328 10.434-1.49 17.33 4.104 6.895 5.595 10.316 12.828 7.641 16.156-2.675 3.328-10.433 1.49-17.329-4.104-6.896-5.595-10.317-12.828-7.642-16.156z" fill="#fff"/><path d="M31.083 29.995c-3.933 0-9.015-2.22-13.596-5.936C10.148 18.105 6.74 10.527 9.73 6.809c1.024-1.273 2.691-1.946 4.822-1.946 3.932 0 9.014 2.218 13.595 5.934 7.34 5.955 10.746 13.532 7.758 17.25-1.024 1.274-2.692 1.948-4.822 1.948zM14.552 6.418c-1.148 0-2.708.238-3.618 1.369-2.362 2.938 1.085 9.836 7.526 15.062 4.25 3.448 9.086 5.59 12.623 5.59 1.148 0 2.707-.237 3.617-1.369 2.362-2.939-1.085-9.837-7.526-15.063-4.25-3.447-9.086-5.59-12.622-5.59z" fill="#17B18D"/></svg>