<svg width="64" height="64" fill="none" xmlns="http://www.w3.org/2000/svg"><path d="M40.951 21.468C35.188 16.792 28.681 14 23.543 14c-2.36 0-4.31.607-5.738 1.753l-.079-.02-.296.333a6.54 6.54 0 0 0-.637.678c-.086.107-.163.22-.242.332a85.223 85.223 0 0 0-2 2.43c-1.221 1.507-1.737 3.543-1.492 5.888.553 5.286 4.82 11.746 11.137 16.86 5.758 4.662 12.262 7.445 17.397 7.445 2.985 0 5.324-.953 6.765-2.758.537-.673 1.14-1.441 1.604-2.034.239-.22.466-.453.67-.707 4.059-5.05-.194-15.034-9.68-22.732z" fill="#17B18D"/><path d="M47.973 45.08c-3.62 4.479-13.531 2.371-22.237-4.636-8.706-7.008-12.796-16.386-9.23-20.865 1.416-1.739 2.727-3.214 2.727-3.214s14.265 3.583 19.51 7.85c6.188 5.059 11.59 17.86 11.59 17.86s-1.364 1.688-2.36 3.005z" fill="#401C8D"/><path d="M18.738 16.849c3.586-4.46 13.525-2.369 22.2 4.67 8.676 7.039 12.802 16.36 9.218 20.82-3.585 4.46-13.525 2.369-22.2-4.67-8.676-7.039-12.803-16.36-9.218-20.82z" fill="#6C38DB"/><path d="M22.01 14.733c1.94 1.58 28.215 28.873 28.215 28.873s1.311-2.266 1.469-3.636c.157-1.37-.367-4.057-.84-5.48-.471-1.423-1.678-4.057-2.202-4.741-.578-.686-11.643-.79-11.643-.79s-2.57-9.8-3.147-12.066c-4.982-2.476-9.282-2.74-11.852-2.16z" fill="#17B18D"/><path d="M19.757 28.54h17.517l-3.829 12.645-2.36 4.004s-11.327-6.797-13.53-13.91a337.581 337.581 0 0 1 2.202-2.74z" fill="#17B18D"/><path d="M22.332 19.297c2.676-3.328 10.434-1.49 17.33 4.104 6.895 5.595 10.316 12.828 7.641 16.156-2.675 3.328-10.433 1.49-17.329-4.104-6.896-5.595-10.317-12.828-7.642-16.156z" fill="#fff"/><path d="M43.083 41.995c-3.933 0-9.015-2.22-13.596-5.936-7.339-5.954-10.746-13.531-7.757-17.25 1.023-1.273 2.691-1.947 4.822-1.947 3.932 0 9.014 2.22 13.595 5.936 7.34 5.954 10.746 13.531 7.758 17.25-1.024 1.273-2.692 1.947-4.822 1.947zM26.552 18.418c-1.148 0-2.708.238-3.618 1.369-2.362 2.938 1.085 9.836 7.526 15.062 4.25 3.449 9.086 5.59 12.623 5.59 1.148 0 2.707-.237 3.617-1.369 2.362-2.939-1.085-9.837-7.526-15.063-4.25-3.447-9.086-5.59-12.622-5.59z" fill="#17B18D"/></svg>