<svg width="100" height="20" fill="none" xmlns="http://www.w3.org/2000/svg"><path d="M9.567 1.86a.444.444 0 0 1 .838 0l1.72 4.939c.062.178.23.297.418.297h5.495c.437 0 .611.566.25.812l-4.392 2.977a.444.444 0 0 0-.17.514l1.69 4.853a.444.444 0 0 1-.669.513l-4.512-3.06a.444.444 0 0 0-.498 0l-4.512 3.06a.444.444 0 0 1-.668-.513l1.69-4.853a.444.444 0 0 0-.17-.514L1.684 7.908a.444.444 0 0 1 .25-.812h5.494c.188 0 .357-.12.419-.297L9.567 1.86zm19.973 0a.444.444 0 0 1 .838 0L32.097 6.8c.062.178.23.297.42.297h5.494c.437 0 .61.566.249.812l-4.392 2.977a.444.444 0 0 0-.17.514l1.69 4.853a.444.444 0 0 1-.668.513l-4.512-3.06a.444.444 0 0 0-.498 0l-4.512 3.06a.444.444 0 0 1-.669-.513l1.69-4.853a.444.444 0 0 0-.17-.514l-4.391-2.977a.444.444 0 0 1 .249-.812H27.4c.19 0 .357-.12.42-.297L29.54 1.86zm19.97 0a.444.444 0 0 1 .839 0L52.068 6.8c.062.178.23.297.419.297h5.494c.438 0 .611.566.25.812l-4.392 2.977a.444.444 0 0 0-.17.514l1.69 4.853a.444.444 0 0 1-.669.513l-4.511-3.06a.444.444 0 0 0-.499 0l-4.512 3.06a.444.444 0 0 1-.668-.513l1.69-4.853a.444.444 0 0 0-.17-.514l-4.392-2.977a.444.444 0 0 1 .25-.812h5.494c.189 0 .357-.12.42-.297L49.51 1.86zm19.973 0a.444.444 0 0 1 .838 0l1.72 4.939c.062.178.23.297.419.297h5.494c.437 0 .611.566.25.812l-4.392 2.977a.444.444 0 0 0-.17.514l1.69 4.853a.444.444 0 0 1-.669.513l-4.512-3.06a.444.444 0 0 0-.498 0l-4.512 3.06a.444.444 0 0 1-.668-.513l1.69-4.853a.444.444 0 0 0-.17-.514L61.6 7.908a.444.444 0 0 1 .25-.812h5.494c.189 0 .357-.12.419-.297l1.719-4.939zm19.97 0a.444.444 0 0 1 .839 0l1.72 4.939c.061.178.23.297.418.297h5.495c.437 0 .61.566.249.812l-4.391 2.977a.444.444 0 0 0-.17.514l1.69 4.853a.444.444 0 0 1-.67.513l-4.511-3.06a.444.444 0 0 0-.498 0l-4.512 3.06a.444.444 0 0 1-.668-.513l1.69-4.853a.444.444 0 0 0-.171-.514l-4.391-2.977a.444.444 0 0 1 .249-.812h5.494c.19 0 .357-.12.42-.297l1.719-4.939z" fill="#17B18D"/></svg>